<?xml version="1.0" encoding="UTF-8"?>
<svg version="1.1" xmlns="http://www.w3.org/2000/svg" width="192" height="192">
<path d="M0 0 C63.36 0 126.72 0 192 0 C192 63.36 192 126.72 192 192 C128.64 192 65.28 192 0 192 C0 128.64 0 65.28 0 0 Z " fill="#2B2A31" transform="translate(0,0)"/>
<path d="M0 0 C63.36 0 126.72 0 192 0 C192 48.51 192 97.02 192 147 C191.67 147 191.34 147 191 147 C190.82984375 146.10539063 190.6596875 145.21078125 190.484375 144.2890625 C188.53359117 131.81583612 188.53359117 131.81583612 182.20703125 121.3515625 C179.73118138 119.83537833 177.37986503 118.98201929 174.625 118.0625 C165.08027061 114.51823819 156.39149585 109.35007857 147.53027344 104.38476562 C145.36791606 103.20135275 143.19627997 102.08594824 140.9765625 101.015625 C133.61605285 97.41257832 127.88075483 93.43811342 124 86 C123.85007344 81.42723977 125.23591641 78.15078493 127 74 C127.67258667 71.66836622 128.33847444 69.3347961 129 67 C129.54009727 65.4994342 130.08182966 63.99945615 130.625 62.5 C131.99966332 58.47272001 132.27013137 55.23205817 132 51 C131.34 50.67 130.68 50.34 130 50 C129.7265625 47.4453125 129.7265625 47.4453125 129.625 44.125 C129.06758102 35.79112932 127.77337613 28.14785944 121.5 22.1875 C111.02173803 13.99827454 100.20508033 10.95353721 87.15332031 11.73486328 C78.05876985 12.85466847 70.54386039 19.05684793 65 26 C64.54625 26.55816406 64.0925 27.11632812 63.625 27.69140625 C59.29374722 34.4138715 60.6870264 43.34953417 61 51 C60.01 51.495 60.01 51.495 59 52 C59.11509661 53.41750563 59.24253658 54.83401169 59.375 56.25 C59.47941406 57.43335937 59.47941406 57.43335937 59.5859375 58.640625 C59.88186007 61.01454615 59.88186007 61.01454615 61.03125 63 C62.19823794 65.40926543 62.20322736 67.09026972 62.125 69.75 C62.10695312 70.54921875 62.08890625 71.3484375 62.0703125 72.171875 C62.04710937 72.77515625 62.02390625 73.3784375 62 74 C62.66 74 63.32 74 64 74 C64.64894237 76.06152389 65.2940264 78.12426258 65.9375 80.1875 C66.29714844 81.33605469 66.65679687 82.48460938 67.02734375 83.66796875 C67.34832031 84.76753906 67.66929688 85.86710937 68 87 C68.26941406 87.86238281 68.53882812 88.72476563 68.81640625 89.61328125 C69.0745385 92.96900049 67.96843539 94.30666564 66 97 C63.51074219 98.58984375 63.51074219 98.58984375 60.546875 99.9375 C59.45947021 100.43757568 58.37206543 100.93765137 57.25170898 101.45288086 C56.09614502 101.96343018 54.94058105 102.47397949 53.75 103 C52.57445557 103.53181885 51.39891113 104.0636377 50.18774414 104.61157227 C42.89948197 107.86123426 35.63550062 110.64838794 28.015625 112.98828125 C22.39364491 114.87441187 17.33306846 117.00039731 14 122 C13.53798489 123.59169841 13.12745079 125.19865592 12.75 126.8125 C10.59466388 135.09294948 6.96853019 142.78706484 3.35546875 150.51953125 C2.00281098 153.99278219 1.52048488 156.73536914 1.3125 160.4375 C1.24675781 161.48808594 1.18101562 162.53867188 1.11328125 163.62109375 C1.07589844 164.40613281 1.03851563 165.19117188 1 166 C0.67 166 0.34 166 0 166 C0 111.22 0 56.44 0 0 Z " fill="#F4F4F4" transform="translate(0,0)"/>
<path d="M0 0 C8.37621934 4.91486988 15.15750523 10.37476586 18.12890625 19.8671875 C19.14517098 25.05390158 18.87569476 30.30004707 18.65625 35.55859375 C20.14125 36.05359375 20.14125 36.05359375 21.65625 36.55859375 C21.98559909 41.7183961 21.20162964 45.51679765 19.4453125 50.3671875 C18.76486082 52.25695678 18.19907141 54.18729248 17.65625 56.12109375 C16.75597165 59.21580059 15.65223574 62.16057127 14.4921875 65.1640625 C13.48331927 68.0539514 12.70384816 70.9783903 11.90625 73.93359375 C9.66122796 81.95397783 6.62458206 89.59256419 3.54101562 97.32128906 C2.16447477 100.80214459 0.84304732 104.30291375 -0.46875 107.80859375 C-0.71334961 108.46077881 -0.95794922 109.11296387 -1.20996094 109.78491211 C-2.84705454 114.17155385 -4.41588834 118.57895983 -5.96875 122.99609375 C-7.5569024 127.48237139 -9.29892324 131.80193923 -11.296875 136.1171875 C-13.59721054 141.48177598 -15.43065324 147.04667972 -17.34375 152.55859375 C-17.67375 152.55859375 -18.00375 152.55859375 -18.34375 152.55859375 C-18.33327637 151.67598877 -18.32280273 150.79338379 -18.31201172 149.8840332 C-18.27783036 146.59461837 -18.2528029 143.30539362 -18.23388672 140.01586914 C-18.22385854 138.59494032 -18.21023259 137.17403197 -18.19287109 135.75317383 C-18.16848179 133.70518931 -18.1572351 131.65747877 -18.1484375 129.609375 C-18.13796387 128.37872314 -18.12749023 127.14807129 -18.11669922 125.88012695 C-18.33915972 122.62574515 -19.01240241 120.50017392 -20.34375 117.55859375 C-20.96809903 113.36653599 -20.6547599 111.99400761 -18.15625 108.49609375 C-17.23654967 107.50018968 -16.29843161 106.52101602 -15.34375 105.55859375 C-14.62832031 104.82189453 -14.62832031 104.82189453 -13.8984375 104.0703125 C-12.72906364 102.8842333 -11.53844962 101.71915909 -10.34375 100.55859375 C-17.03988196 99.76075675 -23.60141581 99.42948522 -30.34375 99.55859375 C-29.84875 100.54859375 -29.84875 100.54859375 -29.34375 101.55859375 C-28.52959806 110.65383399 -29.09585449 117.40492616 -33.03515625 125.71875 C-35.80521555 131.73019212 -37.2868284 138.04892555 -37.90625 144.62109375 C-38.34375 148.55859375 -38.34375 148.55859375 -40.34375 150.55859375 C-42.29813282 135.39203193 -42.76066155 120.33792148 -42.96875 105.05859375 C-43.00705002 102.71352909 -43.04610807 100.36847668 -43.0859375 98.0234375 C-43.34375 82.49340306 -43.34375 82.49340306 -43.34375 77.55859375 C-43.80215473 74.34976066 -44.71107699 71.55216388 -45.90625 68.55859375 C-47.12667581 65.43051206 -47.66227568 62.95620103 -47.34375 59.55859375 C-48.00375 59.55859375 -48.66375 59.55859375 -49.34375 59.55859375 C-49.446875 58.25921875 -49.55 56.95984375 -49.65625 55.62109375 C-50.02557483 52.12077638 -50.75396141 49.10904678 -51.96875 45.80859375 C-53.21035249 42.36103733 -53.67718504 40.11442051 -52.34375 36.55859375 C-51.84875 36.06359375 -51.84875 36.06359375 -51.34375 35.55859375 C-51.36694926 33.76803295 -51.39632026 31.97728017 -51.46118164 30.18774414 C-51.78814575 19.96071685 -50.33469551 14.60967729 -43.34375 6.93359375 C-30.99348056 -4.63475928 -15.36542174 -7.45054104 0 0 Z " fill="#AF816E" transform="translate(111.34375,14.44140625)"/>
<path d="M0 0 C4.29 0.66 8.58 1.32 13 2 C13 3.98 13 5.96 13 8 C17.43748635 8.02896822 21.87494847 8.04678788 26.3125 8.0625 C27.57513672 8.07087891 28.83777344 8.07925781 30.13867188 8.08789062 C31.34716797 8.09111328 32.55566406 8.09433594 33.80078125 8.09765625 C35.47394409 8.10551147 35.47394409 8.10551147 37.1809082 8.11352539 C40.08052062 8.12749254 40.08052062 8.12749254 43 7 C43 6.01 43 5.02 43 4 C48.45461169 2.61470179 53.36718401 1.7603057 59 2 C59.80842895 15.72083584 55.68555184 26.61624794 50.57421875 39.109375 C48.95994691 43.06849427 47.43562249 47.05816358 45.9375 51.0625 C45.6890332 51.72620605 45.44056641 52.38991211 45.18457031 53.07373047 C43.53261246 57.51187479 41.94581868 61.97003402 40.375 66.4375 C38.7868476 70.92377764 37.04482676 75.24334548 35.046875 79.55859375 C32.74653946 84.92318223 30.91309676 90.48808597 29 96 C28.67 96 28.34 96 28 96 C28.01047363 95.11739502 28.02094727 94.23479004 28.03173828 93.32543945 C28.06591964 90.03602462 28.0909471 86.74679987 28.10986328 83.45727539 C28.11989146 82.03634657 28.13351741 80.61543822 28.15087891 79.19458008 C28.17526821 77.14659556 28.1865149 75.09888502 28.1953125 73.05078125 C28.20578613 71.82012939 28.21625977 70.58947754 28.22705078 69.3215332 C28.00459028 66.0671514 27.33134759 63.94158017 26 61 C25.37565097 56.80794224 25.6889901 55.43541386 28.1875 51.9375 C29.10720033 50.94159593 30.04531839 49.96242227 31 49 C31.47695312 48.50886719 31.95390625 48.01773438 32.4453125 47.51171875 C33.61468636 46.32563955 34.80530038 45.16056534 36 44 C29.30386804 43.202163 22.74233419 42.87089147 16 43 C16.33 43.66 16.66 44.32 17 45 C17.81415194 54.09524024 17.24789551 60.84633241 13.30859375 69.16015625 C10.53853445 75.17159837 9.0569216 81.4903318 8.4375 88.0625 C8 92 8 92 6 94 C4.04561718 78.83343818 3.58308845 63.77932773 3.375 48.5 C3.33669998 46.15493534 3.29764193 43.80988293 3.2578125 41.46484375 C3 25.93480931 3 25.93480931 3 21 C2.69080702 19.32868657 2.35446133 17.66230143 2 16 C1.63937621 14.16792587 1.28534188 12.33454386 0.9375 10.5 C0.76089844 9.5821875 0.58429688 8.664375 0.40234375 7.71875 C0 5 0 5 0 0 Z " fill="#936352" transform="translate(65,71)"/>
<path d="M0 0 C2.3125 0.1875 2.3125 0.1875 5 1 C7.70078503 4.72474678 8.90973674 8.53097456 10.125 12.9375 C10.45757812 14.12214844 10.79015625 15.30679688 11.1328125 16.52734375 C12.8159996 23.26767409 13.13507889 29.51726988 13.09765625 36.4296875 C13.0962413 37.42001984 13.09482635 38.41035217 13.09336853 39.43069458 C13.08779252 42.57882773 13.07524442 45.72688852 13.0625 48.875 C13.0574819 51.01562397 13.05291954 53.15624906 13.04882812 55.296875 C13.03868389 60.53129999 13.01910376 65.76556944 13 71 C0.13 71 -12.74 71 -26 71 C-26 66.30035183 -25.95957204 62.96928453 -25.0625 58.5625 C-24.4015532 55.22104674 -23.86623537 51.95421159 -23.5625 48.5625 C-22.96653856 44.78807756 -22.21319572 43.92360422 -20 41 C-19.3138501 39.35756245 -18.69240279 37.68714458 -18.125 36 C-13.62621819 23.15366868 -8.64366997 10.6337933 0 0 Z " fill="#292830" transform="translate(179,121)"/>
<path d="M0 0 C0.33 0 0.66 0 1 0 C0.48716009 5.50247057 -0.50525892 9.86801048 -2.6875 15 C-3.23335153 16.31054066 -3.77756872 17.621763 -4.3203125 18.93359375 C-4.59907227 19.60245605 -4.87783203 20.27131836 -5.16503906 20.96044922 C-6.53302708 24.30201995 -7.80102799 27.67955472 -9.0625 31.0625 C-9.3107251 31.72580322 -9.5589502 32.38910645 -9.81469727 33.07250977 C-11.46736177 37.51089297 -13.05402648 41.96959365 -14.625 46.4375 C-16.2131524 50.92377764 -17.95517324 55.24334548 -19.953125 59.55859375 C-22.25346054 64.92318223 -24.08690324 70.48808597 -26 76 C-26.33 76 -26.66 76 -27 76 C-26.98952637 75.11739502 -26.97905273 74.23479004 -26.96826172 73.32543945 C-26.93408036 70.03602462 -26.9090529 66.74679987 -26.89013672 63.45727539 C-26.88010854 62.03634657 -26.86648259 60.61543822 -26.84912109 59.19458008 C-26.82473179 57.14659556 -26.8134851 55.09888502 -26.8046875 53.05078125 C-26.79421387 51.82012939 -26.78374023 50.58947754 -26.77294922 49.3215332 C-26.99540972 46.0671514 -27.66865241 43.94158017 -29 41 C-29.62434903 36.80794224 -29.3110099 35.43541386 -26.8125 31.9375 C-25.89279967 30.94159593 -24.95468161 29.96242227 -24 29 C-23.52304688 28.50886719 -23.04609375 28.01773438 -22.5546875 27.51171875 C-21.38531364 26.32563955 -20.19469962 25.16056534 -19 24 C-25.69613196 23.202163 -32.25766581 22.87089147 -39 23 C-38.67 23.66 -38.34 24.32 -38 25 C-37.18584806 34.09524024 -37.75210449 40.84633241 -41.69140625 49.16015625 C-44.46146555 55.17159837 -45.9430784 61.4903318 -46.5625 68.0625 C-47 72 -47 72 -49 74 C-50.03792452 65.88210775 -50.13055272 57.85515112 -50.09765625 49.6796875 C-50.09578659 48.32634534 -50.09436528 46.9730025 -50.09336853 45.61965942 C-50.08958649 42.0917772 -50.0797941 38.56393745 -50.06866455 35.03607178 C-50.05835666 31.42249119 -50.053851 27.80890361 -50.04882812 24.1953125 C-50.03816708 17.13019117 -50.0211438 10.06509839 -50 3 C-48.8745575 3.96149153 -47.74956165 4.92350588 -46.62475586 5.88574219 C-45.99822617 6.42140808 -45.37169647 6.95707397 -44.72618103 7.50897217 C-41.98024363 9.88083759 -39.47430004 12.34465361 -37 15 C-37 15.66 -37 16.32 -37 17 C-30.20726277 19.9111731 -25.22095542 20.02257539 -18 19 C-17.79117188 18.2678125 -17.58234375 17.535625 -17.3671875 16.78125 C-15.59204029 13.1700934 -13.41462272 11.7842368 -10.125 9.5 C-6.03049297 6.64289927 -3.01303052 3.98000311 0 0 Z " fill="#E4E4EA" transform="translate(120,91)"/>
<path d="M0 0 C4.80402245 1.87602336 8.53538834 1.0313347 13.3125 -0.625 C13.9725 -0.955 14.6325 -1.285 15.3125 -1.625 C16.90697464 -1.70900529 18.50490545 -1.73227467 20.1015625 -1.72265625 C21.04257813 -1.71943359 21.98359375 -1.71621094 22.953125 -1.71289062 C23.93796875 -1.70451172 24.9228125 -1.69613281 25.9375 -1.6875 C26.93007812 -1.68298828 27.92265625 -1.67847656 28.9453125 -1.67382812 C31.4011016 -1.66202145 33.85677104 -1.645554 36.3125 -1.625 C36.8075 -0.14 36.8075 -0.14 37.3125 1.375 C37.9725 1.375 38.6325 1.375 39.3125 1.375 C39.3125 2.035 39.3125 2.695 39.3125 3.375 C38.3225 3.375 37.3325 3.375 36.3125 3.375 C36.35890625 3.95507812 36.4053125 4.53515625 36.453125 5.1328125 C36.71471072 10.79427486 36.14069378 13.90877393 32.3125 18.375 C30.3438019 20.4843194 29.16645641 21.30109993 26.28125 21.55078125 C24.29083182 21.56129402 22.30046254 21.47439813 20.3125 21.375 C19.8175 23.85 19.8175 23.85 19.3125 26.375 C16.3425 26.87 16.3425 26.87 13.3125 27.375 C13.3125 28.035 13.3125 28.695 13.3125 29.375 C9.0225 28.715 4.7325 28.055 0.3125 27.375 C-0.0175 26.385 -0.3475 25.395 -0.6875 24.375 C5.5825 24.375 11.8525 24.375 18.3125 24.375 C16.45587552 19.73343881 15.6429725 18.6045491 12.3125 15.375 C11.26900161 13.73521682 10.25642019 12.07405634 9.3125 10.375 C5.76281266 11.55822911 5.51939574 12.29252387 3.75 15.4375 C2.49609375 17.66015625 2.49609375 17.66015625 1.3125 19.375 C0.6525 19.375 -0.0075 19.375 -0.6875 19.375 C-0.6875 20.035 -0.6875 20.695 -0.6875 21.375 C-6.51572546 21.68722636 -11.58342427 21.47978339 -16.6875 18.375 C-20.04353603 13.82811248 -20.33395737 8.86100627 -20.6875 3.375 C-22.0075 3.045 -23.3275 2.715 -24.6875 2.375 C-23.6975 2.375 -22.7075 2.375 -21.6875 2.375 C-21.6875 1.385 -21.6875 0.395 -21.6875 -0.625 C-14.4889224 -2.25387522 -6.94825677 -2.75976455 0 0 Z " fill="#432E2C" transform="translate(85.6875,45.625)"/>
<path d="M0 0 C1.32 0 2.64 0 4 0 C4.20496094 0.83144531 4.40992187 1.66289063 4.62109375 2.51953125 C4.89050781 3.60621094 5.15992187 4.69289063 5.4375 5.8125 C5.83775391 7.43091797 5.83775391 7.43091797 6.24609375 9.08203125 C6.76077412 11.0740843 7.34937175 13.04811524 8 15 C13.28 15.99 18.56 16.98 24 18 C24 17.34 24 16.68 24 16 C24.66 16 25.32 16 26 16 C26.2475 15.278125 26.495 14.55625 26.75 13.8125 C28.10983674 10.75286734 29.82917754 8.5326262 32 6 C36.02550319 7.3418344 36.88285636 9.4227573 39 13 C39 13.66 39 14.32 39 15 C40.32 15.66 41.64 16.32 43 17 C43 18.32 43 19.64 43 21 C40.77156512 21.19600577 38.54220107 21.38146569 36.3125 21.5625 C35.07113281 21.66691406 33.82976562 21.77132812 32.55078125 21.87890625 C29.44164467 21.98493841 26.99189028 21.77228525 24 21 C24.33 21.66 24.66 22.32 25 23 C27.16467461 23.62669199 29.35864524 24.15427374 31.5625 24.625 C33.35880859 25.01558594 33.35880859 25.01558594 35.19140625 25.4140625 C36.11824219 25.60742188 37.04507813 25.80078125 38 26 C38 25.34 38 24.68 38 24 C38.94875 23.7525 39.8975 23.505 40.875 23.25 C44.08693191 22.3142923 44.08693191 22.3142923 45.375 19.875 C45.58125 19.25625 45.7875 18.6375 46 18 C46.495 20.475 46.495 20.475 47 23 C47.89203125 22.7834375 48.7840625 22.566875 49.703125 22.34375 C51.45882812 21.92609375 51.45882812 21.92609375 53.25 21.5 C54.41015625 21.2215625 55.5703125 20.943125 56.765625 20.65625 C60 20 60 20 64 20 C64.05402274 22.10388569 64.09280256 24.20816714 64.125 26.3125 C64.14820312 27.48425781 64.17140625 28.65601563 64.1953125 29.86328125 C64 33 64 33 62 36 C62.33 32.04 62.66 28.08 63 24 C57.72 24.66 52.44 25.32 47 26 C46.505 28.475 46.505 28.475 46 31 C41.54168018 31.02891546 37.08338431 31.04676981 32.625 31.0625 C31.35398438 31.07087891 30.08296875 31.07925781 28.7734375 31.08789062 C26.95585938 31.09272461 26.95585938 31.09272461 25.1015625 31.09765625 C23.42054443 31.10551147 23.42054443 31.10551147 21.70556641 31.11352539 C19 31 19 31 17 30 C17 28.02 17 26.04 17 24 C16.39671875 24.02320312 15.7934375 24.04640625 15.171875 24.0703125 C13.97304687 24.09738281 13.97304687 24.09738281 12.75 24.125 C11.56664063 24.15980469 11.56664063 24.15980469 10.359375 24.1953125 C8 24 8 24 4 22 C4.33 25.63 4.66 29.26 5 33 C2.8480563 29.77208445 2.79913557 28.71599191 3 25 C2.34 25 1.68 25 1 25 C0.896875 23.700625 0.79375 22.40125 0.6875 21.0625 C0.31817517 17.56218263 -0.41021141 14.55045303 -1.625 11.25 C-2.87585641 7.79956999 -3.26873855 5.57553592 -2 2 C-1.34 2 -0.68 2 0 2 C0 1.34 0 0.68 0 0 Z " fill="#9F7561" transform="translate(61,49)"/>
<path d="M0 0 C1.1254425 0.96149153 2.25043835 1.92350588 3.37524414 2.88574219 C4.00177383 3.42140808 4.62830353 3.95707397 5.27381897 4.50897217 C8.01975637 6.88083759 10.52569996 9.34465361 13 12 C13 12.66 13 13.32 13 14 C14.32 14.66 15.64 15.32 17 16 C17 16.66 17 17.32 17 18 C15.02 18.66 13.04 19.32 11 20 C11.33 20.66 11.66 21.32 12 22 C12.81415194 31.09524024 12.24789551 37.84633241 8.30859375 46.16015625 C5.53853445 52.17159837 4.0569216 58.4903318 3.4375 65.0625 C3 69 3 69 1 71 C-0.03792452 62.88210775 -0.13055272 54.85515112 -0.09765625 46.6796875 C-0.09578659 45.32634534 -0.09436528 43.9730025 -0.09336853 42.61965942 C-0.08958649 39.0917772 -0.0797941 35.56393745 -0.06866455 32.03607178 C-0.05835666 28.42249119 -0.053851 24.80890361 -0.04882812 21.1953125 C-0.03816708 14.13019117 -0.0211438 7.06509839 0 0 Z " fill="#E7E7EC" transform="translate(70,94)"/>
<path d="M0 0 C5.88564486 3.45348867 12.13002846 7.57934853 15.65625 13.55859375 C15.90625 16.87109375 15.90625 16.87109375 15.65625 19.55859375 C15.16125 18.56859375 15.16125 18.56859375 14.65625 17.55859375 C13.893125 17.47609375 13.13 17.39359375 12.34375 17.30859375 C8.49341194 16.2340808 7.78755295 13.85242558 5.65625 10.55859375 C0.62048643 6.25977119 -3.1145308 6.06657248 -9.40625 6.37109375 C-10.98032439 6.42377706 -12.55455267 6.47207624 -14.12890625 6.515625 C-14.86641113 6.53608887 -15.60391602 6.55655273 -16.36376953 6.57763672 C-18.77804973 6.55441676 -20.98787298 6.06314077 -23.34375 5.55859375 C-25.34545704 5.56924113 -27.34785103 5.65584638 -29.34375 5.80859375 C-30.8596875 5.90914062 -30.8596875 5.90914062 -32.40625 6.01171875 C-36.39309475 6.75395049 -39.10948615 8.21270397 -41.85546875 11.20703125 C-43.71148745 13.93248064 -45.26012746 16.34489169 -46.46875 19.43359375 C-46.7575 20.13484375 -47.04625 20.83609375 -47.34375 21.55859375 C-48.33375 21.88859375 -49.32375 22.21859375 -50.34375 22.55859375 C-50.45203094 16.71142319 -49.20503235 13.86567436 -45.34375 9.43359375 C-32.86386369 -3.48348603 -16.67858235 -8.08727963 0 0 Z " fill="#332F34" transform="translate(111.34375,14.44140625)"/>
<path d="M0 0 C1.60294922 0.01353516 1.60294922 0.01353516 3.23828125 0.02734375 C4.04652344 0.03894531 4.85476562 0.05054688 5.6875 0.0625 C4.6975 0.7225 3.7075 1.3825 2.6875 2.0625 C4.60433709 3.97933709 8.05307292 3.49000305 10.65625 3.68359375 C11.3265625 3.80863281 11.996875 3.93367188 12.6875 4.0625 C14.42248116 7.53246232 14.29544181 11.27757195 13.6875 15.0625 C11.25 18.0625 11.25 18.0625 8.6875 20.0625 C8.3575 20.3925 8.0275 20.7225 7.6875 21.0625 C2.43118664 21.52358012 -1.96087955 21.26669757 -6.6796875 18.75 C-10.13128456 15.18279921 -10.01425103 9.80465867 -10.3125 5.0625 C-11.6325 4.7325 -12.9525 4.4025 -14.3125 4.0625 C-13.3225 4.0625 -12.3325 4.0625 -11.3125 4.0625 C-11.3125 3.0725 -11.3125 2.0825 -11.3125 1.0625 C-7.47525828 0.15836327 -3.93747726 -0.04326898 0 0 Z " fill="#493C3E" transform="translate(75.3125,43.9375)"/>
<path d="M0 0 C1.19024668 3.57074004 0.70570927 5.33031177 0 9 C-0.0928125 10.7015625 -0.0928125 10.7015625 -0.1875 12.4375 C-1.70585356 19.09489636 -6.09335026 22.5567903 -11.6875 26.125 C-12.46480469 26.60710937 -13.24210937 27.08921875 -14.04296875 27.5859375 C-16.23048039 28.95249475 -16.23048039 28.95249475 -17.5 31.75 C-19.33491862 34.50237793 -20.23427521 34.60269062 -23.375 35.375 C-28.16743359 36.1828008 -31.23468007 36.24049509 -35.3125 33.375 C-37.58324352 30.17913875 -37.12075285 27.83725711 -37 24 C-35.67548828 23.92652344 -35.67548828 23.92652344 -34.32421875 23.8515625 C-26.74970803 23.37968106 -19.42807193 22.56141104 -12 21 C-12 20.01 -12 19.02 -12 18 C-10 16.3125 -10 16.3125 -8 15 C-8.33 12.69 -8.66 10.38 -9 8 C-8.195625 7.54625 -7.39125 7.0925 -6.5625 6.625 C-3.91143428 5.25274335 -3.91143428 5.25274335 -3 3 C-2.34 3 -1.68 3 -1 3 C-0.67 2.01 -0.34 1.02 0 0 Z " fill="#603E32" transform="translate(121,76)"/>
<path d="M0 0 C14.78132118 -0.18451025 14.78132118 -0.18451025 21 1 C17.30827405 4.53790403 13.90609405 4.59115883 9 5 C9 5.66 9 6.32 9 7 C10.32 7.33 11.64 7.66 13 8 C13 8.66 13 9.32 13 10 C17.95 9.67 22.9 9.34 28 9 C28.33 8.01 28.66 7.02 29 6 C29.66 6.66 30.32 7.32 31 8 C30.8125 10.5 30.8125 10.5 30 13 C25.56610907 15.95592729 21.23136066 15.71263437 16 16 C14.91589844 16.07734375 13.83179687 16.1546875 12.71484375 16.234375 C11.12349609 16.30398437 11.12349609 16.30398437 9.5 16.375 C8.5203125 16.42398438 7.540625 16.47296875 6.53125 16.5234375 C4 16 4 16 2.19921875 13.83984375 C0.92409888 10.82026022 0.50899383 8.44929759 0.3125 5.1875 C0.24675781 4.21167969 0.18101563 3.23585938 0.11328125 2.23046875 C0.07589844 1.49441406 0.03851563 0.75835937 0 0 Z " fill="#A67563" transform="translate(78,82)"/>
<path d="M0 0 C0.66 0 1.32 0 2 0 C2 1.98 2 3.96 2 6 C6.43748635 6.02896822 10.87494847 6.04678788 15.3125 6.0625 C16.57513672 6.07087891 17.83777344 6.07925781 19.13867188 6.08789062 C20.34716797 6.09111328 21.55566406 6.09433594 22.80078125 6.09765625 C23.91622314 6.10289307 25.03166504 6.10812988 26.1809082 6.11352539 C29.08052062 6.12749254 29.08052062 6.12749254 32 5 C32 4.01 32 3.02 32 2 C37.45461169 0.61470179 42.36718401 -0.2396943 48 0 C48.20177072 7.35342179 48.21211746 13.94887561 46 21 C42.63944598 15.74913434 43.86320272 9.82608606 45 4 C44.67 4.66 44.34 5.32 44 6 C43.34 6 42.68 6 42 6 C41.731875 6.639375 41.46375 7.27875 41.1875 7.9375 C40 10 40 10 37 11 C37.495 14.465 37.495 14.465 38 18 C37.01 18.66 36.02 19.32 35 20 C35 16.37 35 12.74 35 9 C33.76080811 9.07686035 33.76080811 9.07686035 32.49658203 9.15527344 C29.38479121 9.33732082 26.27275079 9.4987432 23.15917969 9.64697266 C21.1677735 9.7478336 19.17757568 9.87171402 17.1875 9.99609375 C9.17293685 10.36039207 3.1339885 9.80787944 -4 6 C-2.84826645 3.53199953 -1.95216435 1.95216435 0 0 Z " fill="#653E32" transform="translate(76,73)"/>
<path d="M0 0 C0.94101563 0.00322266 1.88203125 0.00644531 2.8515625 0.00976562 C3.83640625 0.01814453 4.82125 0.02652344 5.8359375 0.03515625 C6.82851562 0.03966797 7.82109375 0.04417969 8.84375 0.04882812 C11.2995391 0.0606348 13.75520854 0.07710225 16.2109375 0.09765625 C16.7059375 1.58265625 16.7059375 1.58265625 17.2109375 3.09765625 C17.8709375 3.09765625 18.5309375 3.09765625 19.2109375 3.09765625 C19.2109375 3.75765625 19.2109375 4.41765625 19.2109375 5.09765625 C18.2209375 5.09765625 17.2309375 5.09765625 16.2109375 5.09765625 C16.2109375 7.07765625 16.2109375 9.05765625 16.2109375 11.09765625 C15.00465742 8.76551477 14.0454637 6.60123486 13.2109375 4.09765625 C10.20119557 2.59278529 7.59994762 3.21861936 4.2734375 3.47265625 C2.40365234 3.60800781 2.40365234 3.60800781 0.49609375 3.74609375 C-2.79072183 3.97960657 -2.79072183 3.97960657 -5.7890625 5.09765625 C-6.0984375 5.75765625 -6.4078125 6.41765625 -6.7265625 7.09765625 C-7.2525 8.08765625 -7.2525 8.08765625 -7.7890625 9.09765625 C-8.39621094 9.18917969 -9.00335938 9.28070313 -9.62890625 9.375 C-12.92128582 10.47642897 -13.70893562 12.71937574 -15.4140625 15.66015625 C-16.48909434 17.50273265 -17.60304983 19.32447967 -18.7890625 21.09765625 C-19.4490625 21.09765625 -20.1090625 21.09765625 -20.7890625 21.09765625 C-20.7890625 21.75765625 -20.7890625 22.41765625 -20.7890625 23.09765625 C-26.99877023 23.43031916 -31.07171145 22.54794956 -36.7890625 20.09765625 C-36.7890625 19.43765625 -36.7890625 18.77765625 -36.7890625 18.09765625 C-35.9640625 18.42765625 -35.1390625 18.75765625 -34.2890625 19.09765625 C-29.9872948 20.32673274 -27.25705301 20.59409964 -22.7890625 20.09765625 C-19.56274207 18.45566784 -19.56274207 18.45566784 -17.7890625 15.09765625 C-17.38827935 11.39171336 -17.49659601 7.80873104 -17.7890625 4.09765625 C-18.74619141 4.11505859 -18.74619141 4.11505859 -19.72265625 4.1328125 C-20.54894531 4.14183594 -21.37523438 4.15085937 -22.2265625 4.16015625 C-23.46212891 4.17755859 -23.46212891 4.17755859 -24.72265625 4.1953125 C-26.7890625 4.09765625 -26.7890625 4.09765625 -27.7890625 3.09765625 C-30.11724214 2.73004894 -32.450901 2.39524044 -34.7890625 2.09765625 C-34.7890625 1.76765625 -34.7890625 1.43765625 -34.7890625 1.09765625 C-32.56016754 1.04336652 -30.33088779 1.00473287 -28.1015625 0.97265625 C-26.23951172 0.93785156 -26.23951172 0.93785156 -24.33984375 0.90234375 C-20.92242668 1.09032049 -18.90412889 1.84225324 -15.7890625 3.09765625 C-13.39344175 2.95797253 -13.39344175 2.95797253 -11.1015625 2.28515625 C-9.95107422 1.99705078 -9.95107422 1.99705078 -8.77734375 1.703125 C-3.12272613 -0.0188116 -3.12272613 -0.0188116 0 0 Z " fill="#24212A" transform="translate(105.7890625,43.90234375)"/>
<path d="M0 0 C3.43710678 2.29140452 3.61910001 2.94697175 4.5 6.8125 C4.98828125 9.515625 4.98828125 9.515625 5 12 C2.6875 15.0625 2.6875 15.0625 0 17 C-0.33 17.33 -0.66 17.66 -1 18 C-6.48280657 18.51296196 -11.36849368 18.90987853 -16.25 16.1875 C-18 14 -18 14 -18 11 C-14.75 9.375 -14.75 9.375 -11 8 C-8.5625 8.8125 -8.5625 8.8125 -7 10 C-7 9.34 -7 8.68 -7 8 C-6.34 8 -5.68 8 -5 8 C-5 8.66 -5 9.32 -5 10 C-4.01 10 -3.02 10 -2 10 C-2.03122943 8.03243548 -2.03122943 8.03243548 -3 6 C-5.99615946 4.6954344 -5.99615946 4.6954344 -9 4 C-9 3.01 -9 2.02 -9 1 C-5.98131566 -0.50934217 -3.32702771 -0.17510672 0 0 Z " fill="#654842" transform="translate(117,46)"/>
<path d="M0 0 C4.5242137 3.84366294 8.94836396 7.65190279 13 12 C13 12.66 13 13.32 13 14 C14.32 14.66 15.64 15.32 17 16 C17 16.66 17 17.32 17 18 C16.40832031 18.31453125 15.81664063 18.6290625 15.20703125 18.953125 C10.79179725 21.34440997 6.89674562 23.81175359 3 27 C2.34 27 1.68 27 1 27 C0.11097088 20.95180188 -0.12348383 15.10776514 -0.0625 9 C-0.05798828 8.12988281 -0.05347656 7.25976562 -0.04882812 6.36328125 C-0.0371736 4.24215707 -0.01924357 2.1210689 0 0 Z " fill="#ECEDF1" transform="translate(70,94)"/>
<path d="M0 0 C5.75 -0.125 5.75 -0.125 8 1 C8.5625 3.58203125 8.5625 3.58203125 9 6.8125 C9.6590776 12.2035103 9.6590776 12.2035103 12 17 C15.56206661 17.81870185 15.56206661 17.81870185 19 18 C18.01 18.33 17.02 18.66 16 19 C16.33 21.64 16.66 24.28 17 27 C16.34 27 15.68 27 15 27 C13.44921875 25.42578125 13.44921875 25.42578125 11.6875 23.3125 C8.90978543 19.99796868 6.09126189 17.09126189 3 14 C2.67 30.83 2.34 47.66 2 65 C1.67 65 1.34 65 1 65 C0.85717269 57.79175615 0.71480285 50.58350337 0.57275391 43.37524414 C0.52435722 40.92211705 0.47585509 38.46899203 0.42724609 36.01586914 C0.35747114 32.49365773 0.2880731 28.97143907 0.21875 25.44921875 C0.19687622 24.34913986 0.17500244 23.24906097 0.15246582 22.11564636 C0.13244507 21.09481461 0.11242432 20.07398285 0.09179688 19.0222168 C0.07403198 18.12286911 0.05626709 17.22352142 0.03796387 16.29692078 C-0.05179886 10.86602346 0 5.43160807 0 0 Z " fill="#7F503C" transform="translate(68,81)"/>
<path d="M0 0 C0.33 0 0.66 0 1 0 C0.51030705 6.61085476 -1.33442742 11.94977014 -4 18 C-4.66 18 -5.32 18 -6 18 C-6.28875 18.9075 -6.5775 19.815 -6.875 20.75 C-7.76531776 23.32202908 -8.71494413 25.61346766 -10 28 C-13.37462715 27.45276317 -15.08235 26.9451 -18 25 C-16.75539499 16.53668596 -12.3008765 11.66749377 -5.875 6.4375 C-3.45728452 4.38769775 -1.80298224 2.56213266 0 0 Z " fill="#DFDFE6" transform="translate(120,91)"/>
<path d="M0 0 C0.66 0.33 1.32 0.66 2 1 C1.01 1 0.02 1 -1 1 C-0.67 0.67 -0.34 0.34 0 0 Z M-4 3 C-2 4 -2 4 -1 5 C-0.34 5.33 0.32 5.66 1 6 C1 10.29 1 14.58 1 19 C1.66 19 2.32 19 3 19 C3.125 21.375 3.125 21.375 3 24 C2.34 24.66 1.68 25.32 1 26 C0.34 27.32 -0.32 28.64 -1 30 C-1 26.7 -1 23.4 -1 20 C-1.72445312 20.2165625 -2.44890625 20.433125 -3.1953125 20.65625 C-12.79789104 23.42179262 -12.79789104 23.42179262 -18 23 C-18.33 21.35 -18.66 19.7 -19 18 C-17.4221875 17.87625 -17.4221875 17.87625 -15.8125 17.75 C-11.65416866 16.9319676 -9.96265494 15.96265494 -7 13 C-4.91366167 9.87049251 -4.50350579 6.69237581 -4 3 Z " fill="#AA8C85" transform="translate(126,49)"/>
<path d="M0 0 C0.33 0 0.66 0 1 0 C1 6.27 1 12.54 1 19 C-5.93 19 -12.86 19 -20 19 C-16.71100731 15.71100731 -13.46698307 12.57694747 -10 9.5 C-7.24314541 7.03896289 -4.520552 4.58079811 -1.9375 1.9375 C-1.298125 1.298125 -0.65875 0.65875 0 0 Z " fill="#202026" transform="translate(191,173)"/>
<path d="M0 0 C0.33 0.99 0.66 1.98 1 3 C-1.31 3 -3.62 3 -6 3 C-6.33 4.65 -6.66 6.3 -7 8 C-5.68 8 -4.36 8 -3 8 C-3 7.34 -3 6.68 -3 6 C-0.69 6.66 1.62 7.32 4 8 C4 7.34 4 6.68 4 6 C4.99 6 5.98 6 7 6 C7 6.66 7 7.32 7 8 C7.99 7.67 8.98 7.34 10 7 C9.52238806 12.37313433 9.52238806 12.37313433 7.4375 14.875 C2.64311686 17.08779222 -1.57513145 16.50134264 -6.375 14.8125 C-9.44594603 12.69208488 -10.16223547 11.60238746 -11 8 C-11.125 4.6875 -11.125 4.6875 -11 2 C-7.36576791 -0.32590854 -4.22911669 -0.16265833 0 0 Z " fill="#9D6D5B" transform="translate(78,49)"/>
<path d="M0 0 C5.94 0.33 11.88 0.66 18 1 C18.95904856 4.83619425 18.91892116 6.32431536 18 10 C8.0544977 12.62179908 8.0544977 12.62179908 4 11 C1.6875 9.375 1.6875 9.375 0 7 C0 4.69 0 2.38 0 0 Z " fill="#1A1A1E" transform="translate(84,100)"/>
<path d="M0 0 C1.07547979 3.22643938 0.96138778 3.95838833 0.07421875 7.08984375 C-0.14556641 7.87423828 -0.36535156 8.65863281 -0.59179688 9.46679688 C-0.82962891 10.28212891 -1.06746094 11.09746094 -1.3125 11.9375 C-1.53873047 12.74896484 -1.76496094 13.56042969 -1.99804688 14.39648438 C-3.06395237 18.1409766 -4.17539282 21.54650474 -6 25 C-4.68 24.34 -3.36 23.68 -2 23 C-2.19335938 23.556875 -2.38671875 24.11375 -2.5859375 24.6875 C-3.89938212 28.53680304 -5.13011212 32.35171631 -6.0625 36.3125 C-6.79934734 39.21076619 -7.5094212 41.44472205 -9 44 C-9.99 44 -10.98 44 -12 44 C-12.23565479 38.69776719 -11.52886755 33.92024705 -10.5 28.71875 C-10.05955411 26.32382546 -9.7794629 23.98525238 -9.5625 21.5625 C-8.9641063 17.77267322 -8.20853813 16.94471751 -6 14 C-5.25321209 12.16890795 -4.56743588 10.31200555 -3.9375 8.4375 C-2.84378945 5.20029246 -1.91078671 2.86618006 0 0 Z " fill="#0F1015" transform="translate(165,148)"/>
<path d="M0 0 C0.66 0.33 1.32 0.66 2 1 C1.401875 1.350625 0.80375 1.70125 0.1875 2.0625 C-2.7512641 4.66540535 -3.69196363 7.33749817 -5 11 C-5 11.99 -5 12.98 -5 14 C-1.535 15.485 -1.535 15.485 2 17 C2.268125 16.0925 2.53625 15.185 2.8125 14.25 C3.89576294 11.28528037 4.98359457 9.3830246 7 7 C5.83348574 12.92863717 4.24480642 18.38798394 2 24 C1.67 22.68 1.34 21.36 1 20 C-1.27203802 20.2821289 -3.54261684 20.57602856 -5.8125 20.875 C-7.07707031 21.03742188 -8.34164062 21.19984375 -9.64453125 21.3671875 C-13.11699317 21.79568453 -13.11699317 21.79568453 -16 24 C-14.8829081 20.98385187 -13.3874224 19.35491331 -10.9375 17.375 C-7.99175287 15.32880603 -7.99175287 15.32880603 -7 13 C-7.65226562 12.93941406 -8.30453125 12.87882812 -8.9765625 12.81640625 C-13.68716217 12.36480009 -18.34201638 11.85804961 -23 11 C-22.34 10.67 -21.68 10.34 -21 10 C-20.67 9.34 -20.34 8.68 -20 8 C-19.360625 8.185625 -18.72125 8.37125 -18.0625 8.5625 C-13.92665389 9.15333516 -10.1148827 8.58271759 -6 8 C-5.7525 7.236875 -5.505 6.47375 -5.25 5.6875 C-3.89004442 2.7635955 -2.68414174 1.69995644 0 0 Z " fill="#AEADBC" transform="translate(108,102)"/>
<path d="M0 0 C0.66 0.33 1.32 0.66 2 1 C1.505 1.474375 1.01 1.94875 0.5 2.4375 C-1.11542197 3.75923698 -1.11542197 3.75923698 -1 5 C-0.13834229 5.03758423 -0.13834229 5.03758423 0.74072266 5.07592773 C3.36899721 5.19269875 5.99698395 5.31505419 8.625 5.4375 C9.52863281 5.47681641 10.43226562 5.51613281 11.36328125 5.55664062 C15.98216146 5.77578458 20.45153636 6.1008851 25 7 C25 7.33 25 7.66 25 8 C22.60458732 8.19585135 20.20907226 8.38192107 17.8125 8.5625 C16.80219727 8.64661133 16.80219727 8.64661133 15.77148438 8.73242188 C11.94266014 9.01257975 8.73113274 8.79996463 5 8 C2.99829296 8.01064738 0.99589897 8.09725263 -1 8.25 C-2.5159375 8.35054687 -2.5159375 8.35054687 -4.0625 8.453125 C-8.04934475 9.19535674 -10.76573615 10.65411022 -13.51171875 13.6484375 C-15.36773745 16.37388689 -16.91637746 18.78629794 -18.125 21.875 C-18.41375 22.57625 -18.7025 23.2775 -19 24 C-19.99 24.33 -20.98 24.66 -22 25 C-22.10828094 19.15282944 -20.86128235 16.30708061 -17 11.875 C-12.09520471 6.78999658 -6.77358401 2.25786134 0 0 Z " fill="#4A3F40" transform="translate(83,12)"/>
<path d="M0 0 C2 3 2 3 2 5 C2.89203125 4.7834375 3.7840625 4.566875 4.703125 4.34375 C6.45882812 3.92609375 6.45882812 3.92609375 8.25 3.5 C9.41015625 3.2215625 10.5703125 2.943125 11.765625 2.65625 C15 2 15 2 19 2 C19.05402274 4.10388569 19.09280256 6.20816714 19.125 8.3125 C19.14820313 9.48425781 19.17140625 10.65601562 19.1953125 11.86328125 C19 15 19 15 17 18 C17.33 14.04 17.66 10.08 18 6 C12.72 6.66 7.44 7.32 2 8 C1.67 9.65 1.34 11.3 1 13 C-2.63 13 -6.26 13 -10 13 C-8.68 12.34 -7.36 11.68 -6 11 C-8.64 10.34 -11.28 9.68 -14 9 C-14 8.34 -14 7.68 -14 7 C-11.69 7.33 -9.38 7.66 -7 8 C-7 7.34 -7 6.68 -7 6 C-6.030625 5.7525 -5.06125 5.505 -4.0625 5.25 C-3.051875 4.8375 -2.04125 4.425 -1 4 C-0.03122943 1.96756452 -0.03122943 1.96756452 0 0 Z " fill="#A66B51" transform="translate(106,67)"/>
<path d="M0 0 C3 1 3 1 3.9296875 2.8125 C4.24164063 3.534375 4.55359375 4.25625 4.875 5 C6.04298423 7.27178985 6.04298423 7.27178985 8 9 C12.34681849 10.01408159 16.54975015 10.10425183 21 10 C20.67 11.32 20.34 12.64 20 14 C16.27181038 14.83918659 12.69483654 15.25054417 8.875 15.375 C7.84117188 15.42398438 6.80734375 15.47296875 5.7421875 15.5234375 C3 15 3 15 1.14453125 12.80859375 C-0.06740206 9.8346004 -0.31501561 7.87539034 -0.1875 4.6875 C-0.16042969 3.80449219 -0.13335937 2.92148438 -0.10546875 2.01171875 C-0.07066406 1.34785156 -0.03585938 0.68398437 0 0 Z " fill="#BB8977" transform="translate(79,83)"/>
<path d="M0 0 C0.99 0 1.98 0 3 0 C3 0.66 3 1.32 3 2 C5.64 2.33 8.28 2.66 11 3 C11 3.99 11 4.98 11 6 C11.928125 5.938125 12.85625 5.87625 13.8125 5.8125 C17 6 17 6 18.875 7.5 C19.24625 7.995 19.6175 8.49 20 9 C15.60561085 10.08780557 11.31129921 10.14942787 6.8125 10.125 C6.08869141 10.12886719 5.36488281 10.13273437 4.61914062 10.13671875 C-0.74652778 10.12673611 -0.74652778 10.12673611 -3 9 C-2.25 2.25 -2.25 2.25 0 0 Z " fill="#AD8171" transform="translate(81,70)"/>
<path d="M0 0 C3.63 0.66 7.26 1.32 11 2 C9.02 4.97 9.02 4.97 7 8 C7.763125 8.12375 8.52625 8.2475 9.3125 8.375 C12 9 12 9 15 11 C14.34 11 13.68 11 13 11 C13.28382946 12.75128818 13.57739529 14.50100003 13.875 16.25 C14.03742188 17.22453125 14.19984375 18.1990625 14.3671875 19.203125 C14.94855848 21.77264117 15.70840265 23.72071056 17 26 C15.125 25.8125 15.125 25.8125 13 25 C10.30438812 20.68702099 10.80772925 15.90290403 11 11 C8.36 10.67 5.72 10.34 3 10 C3.33 12.64 3.66 15.28 4 18 C1.53124858 15.53124858 1.45538144 14.09148319 0.875 10.6875 C0.70742187 9.74261719 0.53984375 8.79773438 0.3671875 7.82421875 C0 5 0 5 0 0 Z " fill="#805947" transform="translate(65,71)"/>
<path d="M0 0 C0.99 0.33 1.98 0.66 3 1 C3 3.31 3 5.62 3 8 C3.66 8 4.32 8 5 8 C5.33 9.65 5.66 11.3 6 13 C1.32798795 14.20568053 -3.21496292 14.09382426 -8 14 C-8 12.68 -8 11.36 -8 10 C-7.34 10 -6.68 10 -6 10 C-5.7525 9.278125 -5.505 8.55625 -5.25 7.8125 C-3.89016326 4.75286734 -2.17082246 2.5326262 0 0 Z " fill="#BD8872" transform="translate(93,55)"/>
<path d="M0 0 C1.32 0.33 2.64 0.66 4 1 C4 1.99 4 2.98 4 4 C5.32 4 6.64 4 8 4 C8.36203841 9.67193509 7.66422132 14.89083483 5 20 C4.01 20.33 3.02 20.66 2 21 C1.67 16.71 1.34 12.42 1 8 C0.01 8.33 -0.98 8.66 -2 9 C-2.33 6.69 -2.66 4.38 -3 2 C-2.01 2 -1.02 2 0 2 C0 1.34 0 0.68 0 0 Z M1 2 C0.67 2.66 0.34 3.32 0 4 C0.99 3.67 1.98 3.34 3 3 C2.34 2.67 1.68 2.34 1 2 Z " fill="#98776D" transform="translate(125,47)"/>
<path d="M0 0 C1.65 1.65 3.3 3.3 5 5 C4.67 5.66 4.34 6.32 4 7 C0.8815675 8.0394775 -1.27475586 8.11494838 -4.54296875 8.09765625 C-5.61611328 8.09443359 -6.68925781 8.09121094 -7.79492188 8.08789062 C-8.91447266 8.07951172 -10.03402344 8.07113281 -11.1875 8.0625 C-12.31865234 8.05798828 -13.44980469 8.05347656 -14.61523438 8.04882812 C-17.41020927 8.03703498 -20.2050782 8.0205765 -23 8 C-21.68 6.02 -20.36 4.04 -19 2 C-18.67 2.66 -18.34 3.32 -18 4 C-17.401875 3.79375 -16.80375 3.5875 -16.1875 3.375 C-14 3 -14 3 -11 5 C-9.67432801 5.68177416 -8.34246312 6.35191436 -7 7 C-7 5.68 -7 4.36 -7 3 C-4.66785852 1.79371992 -2.50357861 0.8345262 0 0 Z " fill="#D1A493" transform="translate(95,36)"/>
<path d="M0 0 C3.73953863 1.6763449 6.25049165 3.30111441 7.9375 7.125 C8.85030586 9.17257898 8.85030586 9.17257898 11 9.875 C11.66 9.91625 12.32 9.9575 13 10 C13.66 9.34 14.32 8.68 15 8 C16.3271261 11.9813783 16.06915913 15.85045227 16 20 C13.69 19.01 11.38 18.02 9 17 C9 16.34 9 15.68 9 15 C6.03 14.505 6.03 14.505 3 14 C3.33 13.34 3.66 12.68 4 12 C4.039992 10.00039988 4.04346799 7.99952758 4 6 C2.68 5.34 1.36 4.68 0 4 C0 2.68 0 1.36 0 0 Z " fill="#8F736A" transform="translate(113,22)"/>
<path d="M0 0 C1.37562854 1.28965176 2.70766393 2.62689293 4 4 C4 4.66 4 5.32 4 6 C5.32 6.66 6.64 7.32 8 8 C8 9.32 8 10.64 8 12 C5.77156512 12.19600577 3.54220107 12.38146569 1.3125 12.5625 C-0.54955078 12.71912109 -0.54955078 12.71912109 -2.44921875 12.87890625 C-5.55835533 12.98493841 -8.00810972 12.77228525 -11 12 C-11.33 12.66 -11.66 13.32 -12 14 C-12 13.34 -12 12.68 -12 12 C-14.03241727 12.63979849 -14.03241727 12.63979849 -16 14 C-16.81171228 16.55519921 -16.81171228 16.55519921 -17 19 C-17.12375 18.360625 -17.2475 17.72125 -17.375 17.0625 C-17.58125 16.381875 -17.7875 15.70125 -18 15 C-18.66 14.67 -19.32 14.34 -20 14 C-19.505 13.360625 -19.01 12.72125 -18.5 12.0625 C-16.90197138 10.29025661 -16.90197138 10.29025661 -17 9 C-15.02 9 -13.04 9 -11 9 C-11 9.66 -11 10.32 -11 11 C-6.38 10.67 -1.76 10.34 3 10 C2.67 8.35 2.34 6.7 2 5 C1.34 5 0.68 5 0 5 C0 3.35 0 1.7 0 0 Z " fill="#9E6953" transform="translate(96,58)"/>
<path d="M0 0 C0 0.99 0 1.98 0 3 C0.99 3 1.98 3 3 3 C2.14285714 11.57142857 2.14285714 11.57142857 0 15 C-1.65 15 -3.3 15 -5 15 C-5.33 10.38 -5.66 5.76 -6 1 C-4 0 -4 0 0 0 Z " fill="#34323A" transform="translate(87,113)"/>
<path d="M0 0 C0 3 0 3 -2 5.1875 C-6.01053611 7.61053223 -8.37798596 7.31335688 -13 7 C-13.33 8.65 -13.66 10.3 -14 12 C-15.98 12.33 -17.96 12.66 -20 13 C-20 13.66 -20 14.32 -20 15 C-24.29 14.34 -28.58 13.68 -33 13 C-33.33 12.01 -33.66 11.02 -34 10 C-27.73 10 -21.46 10 -15 10 C-14.67 8.02 -14.34 6.04 -14 4 C-13.24074219 3.96261719 -12.48148438 3.92523438 -11.69921875 3.88671875 C-10.70535156 3.82097656 -9.71148437 3.75523438 -8.6875 3.6875 C-7.70136719 3.62949219 -6.71523437 3.57148437 -5.69921875 3.51171875 C-2.75615543 2.95377187 -1.81817001 2.31459868 0 0 Z " fill="#533229" transform="translate(119,60)"/>
<path d="M0 0 C0.20177072 7.35342179 0.21211746 13.94887561 -2 21 C-4.34878447 17.33002427 -4.29044335 14.28403947 -4 10 C-3.45886664 7.60221941 -2.76460856 5.34161371 -2 3 C-5.3 3 -8.6 3 -12 3 C-11.67 3.66 -11.34 4.32 -11 5 C-10.01 5.33 -9.02 5.66 -8 6 C-8.33 6.99 -8.66 7.98 -9 9 C-9.66 9 -10.32 9 -11 9 C-11 8.34 -11 7.68 -11 7 C-11.99 7 -12.98 7 -14 7 C-14 6.01 -14 5.02 -14 4 C-14.66 4 -15.32 4 -16 4 C-16 3.34 -16 2.68 -16 2 C-10.54538831 0.61470179 -5.63281599 -0.2396943 0 0 Z " fill="#7B5A50" transform="translate(124,73)"/>
<path d="M0 0 C0.75 1.75 0.75 1.75 1 4 C-1.15832197 6.84625428 -2.34085999 7.8955993 -5.91015625 8.4609375 C-6.95042969 8.43257812 -7.99070312 8.40421875 -9.0625 8.375 C-10.10535156 8.36210938 -11.14820312 8.34921875 -12.22265625 8.3359375 C-15 8 -15 8 -18 6 C-17.67 5.01 -17.34 4.02 -17 3 C-13.04 3 -9.08 3 -5 3 C-5 2.34 -5 1.68 -5 1 C-3.35 0.67 -1.7 0.34 0 0 Z " fill="#926454" transform="translate(119,56)"/>
<path d="M0 0 C3.63 1.32 7.26 2.64 11 4 C11 7 11 7 9.9375 8.6875 C6.96871514 10.69861232 4.48571978 10.31688362 1 10 C-1 8 -1 8 -1.1875 5 C-1 2 -1 2 0 0 Z " fill="#BA8065" transform="translate(68,63)"/>
<path d="M0 0 C0.33 1.32 0.66 2.64 1 4 C0.29875 4.556875 -0.4025 5.11375 -1.125 5.6875 C-4.11344261 8.09124732 -7.05940238 10.53810432 -10 13 C-10 10.69 -10 8.38 -10 6 C-14.95 6 -19.9 6 -25 6 C-25 5.67 -25 5.34 -25 5 C-23.38931641 4.83564453 -23.38931641 4.83564453 -21.74609375 4.66796875 C-20.3098322 4.50838413 -18.87363767 4.34819558 -17.4375 4.1875 C-16.73302734 4.11724609 -16.02855469 4.04699219 -15.30273438 3.97460938 C-10.14028378 3.379857 -4.86497833 0 0 0 Z " fill="#432E28" transform="translate(112,95)"/>
<path d="M0 0 C2.64 0 5.28 0 8 0 C8 3.96 8 7.92 8 12 C7.34 12 6.68 12 6 12 C6 12.99 6 13.98 6 15 C-3.67724227 18.14463579 -12.98321848 19.1775612 -23 17 C-23.33 16.34 -23.66 15.68 -24 15 C-23.04480469 15.01160156 -22.08960937 15.02320312 -21.10546875 15.03515625 C-8.10347784 16.05056821 -8.10347784 16.05056821 3.72265625 12.78125 C5.36178233 10.4954962 5.72091823 8.57609974 6.1875 5.8125 C6.34605469 4.91144531 6.50460938 4.01039062 6.66796875 3.08203125 C6.83232422 2.05142578 6.83232422 2.05142578 7 1 C4.69 1 2.38 1 0 1 C0 0.67 0 0.34 0 0 Z " fill="#7C5343" transform="translate(103,82)"/>
<path d="M0 0 C1.0725 0.165 2.145 0.33 3.25 0.5 C7.80614036 1.10748538 11.54508241 0.93787739 16 0 C16.66 0 17.32 0 18 0 C18 1.65 18 3.3 18 5 C12.06 5 6.12 5 0 5 C0 3.35 0 1.7 0 0 Z " fill="#726F78" transform="translate(111,187)"/>
<path d="M0 0 C5.61 0 11.22 0 17 0 C17 0.33 17 0.66 17 1 C15.88625 1.309375 14.7725 1.61875 13.625 1.9375 C10.2054845 2.82326483 10.2054845 2.82326483 8 4 C7.67 3.34 7.34 2.68 7 2 C6.01 1.67 5.02 1.34 4 1 C4 1.99 4 2.98 4 4 C5.32 4.66 6.64 5.32 8 6 C8 6.33 8 6.66 8 7 C3.71 7 -0.58 7 -5 7 C-5 6.01 -5 5.02 -5 4 C-4.360625 3.71125 -3.72125 3.4225 -3.0625 3.125 C-0.84793921 2.17176549 -0.84793921 2.17176549 0 0 Z " fill="#3F383C" transform="translate(85,11)"/>
<path d="M0 0 C0.66 0 1.32 0 2 0 C2 1.98 2 3.96 2 6 C6.43744539 6.05793591 10.87479389 6.09357467 15.3125 6.125 C17.20645508 6.15013672 17.20645508 6.15013672 19.13867188 6.17578125 C20.34716797 6.18222656 21.55566406 6.18867187 22.80078125 6.1953125 C23.91622314 6.20578613 25.03166504 6.21625977 26.1809082 6.22705078 C29.20678201 6.21322653 29.20678201 6.21322653 32 4 C32.66 4 33.32 4 34 4 C34 4.99 34 5.98 34 7 C29.46367618 9.26816191 23.36401989 8.5444223 18.375 8.75 C17.11558594 8.81832031 15.85617188 8.88664062 14.55859375 8.95703125 C7.56138339 9.24338089 2.33161268 9.09403743 -4 6 C-2.84826645 3.53199953 -1.95216435 1.95216435 0 0 Z " fill="#72493B" transform="translate(76,73)"/>
<path d="M0 0 C0.66 0.33 1.32 0.66 2 1 C1.13375 1.4640625 1.13375 1.4640625 0.25 1.9375 C-3.09185643 5.00086839 -4.35915216 8.83678501 -6 13 C-17.52164009 12.03644647 -17.52164009 12.03644647 -23 11 C-22.34 10.67 -21.68 10.34 -21 10 C-20.67 9.34 -20.34 8.68 -20 8 C-19.360625 8.185625 -18.72125 8.37125 -18.0625 8.5625 C-13.92665389 9.15333516 -10.1148827 8.58271759 -6 8 C-5.7525 7.236875 -5.505 6.47375 -5.25 5.6875 C-3.89004442 2.7635955 -2.68414174 1.69995644 0 0 Z " fill="#C3C3CD" transform="translate(108,102)"/>
<path d="M0 0 C0 0.99 0 1.98 0 3 C-3 4 -3 4 -6 3 C-6 3.66 -6 4.32 -6 5 C-10.75 4.125 -10.75 4.125 -13 3 C-13 3.66 -13 4.32 -13 5 C-14.32 5 -15.64 5 -17 5 C-16.67 3.35 -16.34 1.7 -16 0 C-13.33333333 0 -10.66666667 0 -8 0 C-7.360625 -0.185625 -6.72125 -0.37125 -6.0625 -0.5625 C-3.70335078 -1.06292559 -2.2714844 -0.73011998 0 0 Z " fill="#3A2724" transform="translate(88,52)"/>
<path d="M0 0 C0.33 0.66 0.66 1.32 1 2 C-1.44440395 7.47546484 -4.4627859 12.52192868 -7.6328125 17.60546875 C-9.07966796 19.99639951 -9.07966796 19.99639951 -10.046875 22.75 C-10.36140625 23.4925 -10.6759375 24.235 -11 25 C-13.125 25.8125 -13.125 25.8125 -15 26 C-13.68548454 22.50136058 -12.1445897 19.37030652 -10.21484375 16.171875 C-9.68439453 15.29015625 -9.15394531 14.4084375 -8.60742188 13.5 C-8.05634766 12.5925 -7.50527344 11.685 -6.9375 10.75 C-6.38255859 9.82703125 -5.82761719 8.9040625 -5.25585938 7.953125 C-1.1474084 1.1474084 -1.1474084 1.1474084 0 0 Z " fill="#101014" transform="translate(111,166)"/>
<path d="M0 0 C1.98 0.495 1.98 0.495 4 1 C3.67 1.66 3.34 2.32 3 3 C2.88127427 4.63335192 2.82290908 6.27127354 2.79467773 7.90869141 C2.77473251 8.92959869 2.75478729 9.95050598 2.73423767 11.00234985 C2.71752518 12.10759003 2.70081268 13.2128302 2.68359375 14.3515625 C2.66281265 15.4807309 2.64203156 16.60989929 2.62062073 17.77328491 C2.55508665 21.39045972 2.49622226 25.00770881 2.4375 28.625 C2.39431846 31.07292444 2.35070429 33.52084128 2.30664062 35.96875 C2.19940133 41.9790875 2.09764213 47.98949935 2 54 C1.67 54 1.34 54 1 54 C0.85717269 46.79175615 0.71480285 39.58350337 0.57275391 32.37524414 C0.52435722 29.92211705 0.47585509 27.46899203 0.42724609 25.01586914 C0.35747114 21.49365773 0.2880731 17.97143907 0.21875 14.44921875 C0.19687622 13.34913986 0.17500244 12.24906097 0.15246582 11.11564636 C0.13244507 10.09481461 0.11242432 9.07398285 0.09179688 8.0222168 C0.07403198 7.12286911 0.05626709 6.22352142 0.03796387 5.29692078 C0.00878432 3.53147629 0 1.76568561 0 0 Z " fill="#656574" transform="translate(68,92)"/>
<path d="M0 0 C1.32 0 2.64 0 4 0 C4.33 2.31 4.66 4.62 5 7 C4.01 7 3.02 7 2 7 C1.67 7.99 1.34 8.98 1 10 C0.01 11.485 0.01 11.485 -1 13 C-2.62950412 8.87831311 -3.26264601 6.29299643 -2 2 C-1.34 2 -0.68 2 0 2 C0 1.34 0 0.68 0 0 Z " fill="#896456" transform="translate(61,49)"/>
<path d="M0 0 C0.33 0.66 0.66 1.32 1 2 C2.4540625 2.2165625 2.4540625 2.2165625 3.9375 2.4375 C4.948125 2.623125 5.95875 2.80875 7 3 C7.99 4.485 7.99 4.485 9 6 C8.67 6.66 8.34 7.32 8 8 C7.01 8 6.02 8 5 8 C5 7.34 5 6.68 5 6 C4.34 6 3.68 6 3 6 C3 6.66 3 7.32 3 8 C0.03 7.505 0.03 7.505 -3 7 C-3.33 5.68 -3.66 4.36 -4 3 C-2.68 2.01 -1.36 1.02 0 0 Z " fill="#422D2A" transform="translate(107,48)"/>
<path d="M0 0 C0.66 0 1.32 0 2 0 C1.33333333 4.66666667 0.66666667 9.33333333 0 14 C-0.66 13.34 -1.32 12.68 -2 12 C-3.32 13.32 -4.64 14.64 -6 16 C-6.33 15.34 -6.66 14.68 -7 14 C-6.12701274 11.77706224 -5.15214021 9.59354778 -4.125 7.4375 C-3.57070312 6.26058594 -3.01640625 5.08367187 -2.4453125 3.87109375 C-1 1 -1 1 0 0 Z " fill="#3F3C44" transform="translate(83,129)"/>
<path d="M0 0 C1.09178911 3.27536732 0.93042848 4.04413619 0.00390625 7.23046875 C-0.22490234 8.03291016 -0.45371094 8.83535156 -0.68945312 9.66210938 C-0.93630859 10.49548828 -1.18316406 11.32886719 -1.4375 12.1875 C-1.68048828 13.03248047 -1.92347656 13.87746094 -2.17382812 14.74804688 C-2.77493493 16.8342411 -3.38647834 18.91742301 -4 21 C-4.66 20.01 -5.32 19.02 -6 18 C-6.66 20.97 -7.32 23.94 -8 27 C-8.66 26.67 -9.32 26.34 -10 26 C-9.55840175 20.70082106 -9.22582114 18.23488341 -6 14 C-5.25321209 12.16890795 -4.56743588 10.31200555 -3.9375 8.4375 C-2.84378945 5.20029246 -1.91078671 2.86618006 0 0 Z " fill="#14151B" transform="translate(165,148)"/>
<path d="M0 0 C0 2.97 0 5.94 0 9 C-2.97 9.66 -5.94 10.32 -9 11 C-9 9.68 -9 8.36 -9 7 C-8.34 7 -7.68 7 -7 7 C-6.7525 6.21625 -6.505 5.4325 -6.25 4.625 C-5 2 -5 2 -2.9375 0.6875 C-1 0 -1 0 0 0 Z " fill="#D9AD9C" transform="translate(94,58)"/>
<path d="M0 0 C5.875 1.875 5.875 1.875 7 3 C9.32817964 3.36760731 11.6618385 3.70241581 14 4 C13.01 4.33 12.02 4.66 11 5 C11.33 7.64 11.66 10.28 12 13 C11.34 13 10.68 13 10 13 C8.37890625 11.35546875 8.37890625 11.35546875 6.5625 9.1875 C4.02660668 6.17536735 4.02660668 6.17536735 1.27734375 3.36328125 C0 2 0 2 0 0 Z " fill="#514241" transform="translate(73,95)"/>
<path d="M0 0 C5.28 0 10.56 0 16 0 C15.67 0.66 15.34 1.32 15 2 C14.01 2 13.02 2 12 2 C11.67 2.99 11.34 3.98 11 5 C8.69 5 6.38 5 4 5 C4 4.34 4 3.68 4 3 C2.68 2.67 1.36 2.34 0 2 C0 1.34 0 0.68 0 0 Z " fill="#573529" transform="translate(87,87)"/>
<path d="M0 0 C0.79921875 0.00902344 1.5984375 0.01804687 2.421875 0.02734375 C3.02515625 0.03894531 3.6284375 0.05054687 4.25 0.0625 C1.72047712 3.21361212 -0.51756266 3.65048017 -4.4375 4.25 C-5.43136719 4.40855469 -6.42523438 4.56710938 -7.44921875 4.73046875 C-8.20847656 4.84003906 -8.96773438 4.94960937 -9.75 5.0625 C-10.08 7.3725 -10.41 9.6825 -10.75 12.0625 C-12.75 10.0625 -12.75 10.0625 -13.125 7.125 C-12.75 4.0625 -12.75 4.0625 -11 2.25 C-7.32080454 0.3082024 -4.13134752 -0.06075511 0 0 Z " fill="#BEBECA" transform="translate(103.75,121.9375)"/>
<path d="M0 0 C1.39456452 0.00667256 2.78911118 0.01863093 4.18359375 0.03515625 C4.89451172 0.03966797 5.60542969 0.04417969 6.33789062 0.04882812 C8.09899388 0.06064761 9.86005411 0.07858362 11.62109375 0.09765625 C11.29109375 1.41765625 10.96109375 2.73765625 10.62109375 4.09765625 C6.00109375 4.09765625 1.38109375 4.09765625 -3.37890625 4.09765625 C-3.70890625 3.10765625 -4.03890625 2.11765625 -4.37890625 1.09765625 C-3.37890625 0.09765625 -3.37890625 0.09765625 0 0 Z " fill="#BF8F7E" transform="translate(88.37890625,92.90234375)"/>
<path d="M0 0 C0.99 0.495 0.99 0.495 2 1 C2.41064453 3.22485352 2.41064453 3.22485352 2.6328125 6.12890625 C2.71660156 7.16337891 2.80039063 8.19785156 2.88671875 9.26367188 C2.96535156 10.35228516 3.04398437 11.44089844 3.125 12.5625 C3.21136719 13.65498047 3.29773438 14.74746094 3.38671875 15.87304688 C3.59960954 18.58149081 3.80363237 21.29031607 4 24 C3.01 24 2.02 24 1 24 C-0.03387512 15.9874678 -0.10466648 8.07094823 0 0 Z " fill="#111217" transform="translate(71,168)"/>
<path d="M0 0 C0.33 1.32 0.66 2.64 1 4 C0.34 4 -0.32 4 -1 4 C-1.144375 5.19625 -1.28875 6.3925 -1.4375 7.625 C-1.87039343 11.1005158 -2.39616256 14.54950034 -3 18 C-3.33 18 -3.66 18 -4 18 C-4.06058594 17.38511719 -4.12117188 16.77023438 -4.18359375 16.13671875 C-4.26738281 15.32847656 -4.35117187 14.52023438 -4.4375 13.6875 C-4.51871094 12.88699219 -4.59992187 12.08648437 -4.68359375 11.26171875 C-4.95265693 8.83912821 -4.95265693 8.83912821 -6 6 C-5.6875 3.375 -5.6875 3.375 -5 1 C-3 0 -3 0 0 0 Z " fill="#A8816F" transform="translate(66,56)"/>
<path d="M0 0 C2.53342371 4.68482322 2.42483941 8.12362596 1.25 13.3125 C0 16 0 16 -2.125 16.875 C-2.74375 16.91625 -3.3625 16.9575 -4 17 C-3.35729017 11.0870696 -1.80996216 5.65755469 0 0 Z " fill="#21222A" transform="translate(123,86)"/>
<path d="M0 0 C0.33 0.99 0.66 1.98 1 3 C-1.31 3 -3.62 3 -6 3 C-6.33 4.65 -6.66 6.3 -7 8 C-8.32 8 -9.64 8 -11 8 C-11 6.02 -11 4.04 -11 2 C-7.36576791 -0.32590854 -4.22911669 -0.16265833 0 0 Z " fill="#825746" transform="translate(78,49)"/>
<path d="M0 0 C0.33 1.32 0.66 2.64 1 4 C1.66 4 2.32 4 3 4 C3.66 2.68 4.32 1.36 5 0 C5.75 2.75 5.75 2.75 6 6 C4.1875 8 4.1875 8 2 10 C0.73215876 13.13350717 0.73215876 13.13350717 0 16 C-0.33 16 -0.66 16 -1 16 C-1.02701408 13.89590361 -1.04640223 11.79170822 -1.0625 9.6875 C-1.07410156 8.51574219 -1.08570313 7.34398437 -1.09765625 6.13671875 C-1 3 -1 3 0 0 Z " fill="#8F7164" transform="translate(61,31)"/>
<path d="M0 0 C2.475 0.99 2.475 0.99 5 2 C4.01 2.495 4.01 2.495 3 3 C3.28382946 4.75128818 3.57739529 6.50100003 3.875 8.25 C4.03742188 9.22453125 4.19984375 10.1990625 4.3671875 11.203125 C4.94855848 13.77264117 5.70840265 15.72071056 7 18 C5.125 17.8125 5.125 17.8125 3 17 C0.30438812 12.68702099 0.80772925 7.90290403 1 3 C0.01 2.67 -0.98 2.34 -2 2 C-1.34 1.34 -0.68 0.68 0 0 Z " fill="#946653" transform="translate(75,79)"/>
<path d="M0 0 C0.99 0.33 1.98 0.66 3 1 C2.67 1.66 2.34 2.32 2 3 C4.31 3.33 6.62 3.66 9 4 C8.67 4.99 8.34 5.98 8 7 C4.37 7 0.74 7 -3 7 C-1.68 6.34 -0.36 5.68 1 5 C-1.64 4.34 -4.28 3.68 -7 3 C-7 2.34 -7 1.68 -7 1 C-4.69 1.33 -2.38 1.66 0 2 C0 1.34 0 0.68 0 0 Z " fill="#8E6456" transform="translate(99,73)"/>
<path d="M0 0 C2 3.75 2 3.75 2 6 C-2.455 6.495 -2.455 6.495 -7 7 C-7.33 5.35 -7.66 3.7 -8 2 C-6.865625 1.855625 -5.73125 1.71125 -4.5625 1.5625 C-1.19222799 1.38828522 -1.19222799 1.38828522 0 0 Z " fill="#BF8368" transform="translate(115,65)"/>
<path d="M0 0 C6.6 0 13.2 0 20 0 C16.89506462 3.10493538 13.31678423 3.70022332 9 4 C5.83670806 3.33780485 2.9545422 2.2991604 0 1 C0 0.67 0 0.34 0 0 Z " fill="#AF7A65" transform="translate(81,44)"/>
<path d="M0 0 C0.66 0 1.32 0 2 0 C2.268125 0.804375 2.53625 1.60875 2.8125 2.4375 C3.204375 3.283125 3.59625 4.12875 4 5 C4.99 5.33 5.98 5.66 7 6 C7 6.66 7 7.32 7 8 C7.66 8 8.32 8 9 8 C9.33 8.99 9.66 9.98 10 11 C7.69 10.67 5.38 10.34 3 10 C3 9.01 3 8.02 3 7 C2.01 6.67 1.02 6.34 0 6 C0 4.02 0 2.04 0 0 Z " fill="#6B493B" transform="translate(69,86)"/>
<path d="M0 0 C1.64574566 -0.02688151 3.29161413 -0.04634123 4.9375 -0.0625 C5.85402344 -0.07410156 6.77054688 -0.08570313 7.71484375 -0.09765625 C10 0 10 0 11 1 C11.07179964 2.51928038 11.08392007 4.04167482 11.0625 5.5625 C11.05347656 6.38878906 11.04445313 7.21507812 11.03515625 8.06640625 C11.02355469 8.70449219 11.01195313 9.34257813 11 10 C9.68 9.01 8.36 8.02 7 7 C7.99 6.67 8.98 6.34 10 6 C9.67 5.01 9.34 4.02 9 3 C5.04 3.66 1.08 4.32 -3 5 C-1.68 4.34 -0.36 3.68 1 3 C0.67 2.01 0.34 1.02 0 0 Z " fill="#634035" transform="translate(78,49)"/>
<path d="M0 0 C-0.639375 0.7425 -1.27875 1.485 -1.9375 2.25 C-3.78333407 4.7111121 -4.56069174 6.03466926 -5 9 C-5.66 9 -6.32 9 -7 9 C-7.33 8.34 -7.66 7.68 -8 7 C-8.66 7 -9.32 7 -10 7 C-9.75 4.625 -9.75 4.625 -9 2 C-6.09557968 -0.17831524 -3.54875053 -0.19715281 0 0 Z " fill="#302121" transform="translate(108,47)"/>
<path d="M0 0 C0 3 0 3 -2 5.1875 C-6.01053611 7.61053223 -8.37798596 7.31335688 -13 7 C-13.33 8.65 -13.66 10.3 -14 12 C-15.32 11.34 -16.64 10.68 -18 10 C-17.01 10 -16.02 10 -15 10 C-14.67 8.02 -14.34 6.04 -14 4 C-13.24074219 3.96261719 -12.48148437 3.92523438 -11.69921875 3.88671875 C-10.70535156 3.82097656 -9.71148437 3.75523438 -8.6875 3.6875 C-7.70136719 3.62949219 -6.71523437 3.57148437 -5.69921875 3.51171875 C-2.75615543 2.95377187 -1.81817001 2.31459868 0 0 Z " fill="#67473F" transform="translate(119,60)"/>
<path d="M0 0 C2.475 0.495 2.475 0.495 5 1 C6.125 4.75 6.125 4.75 5 7 C8.3 7.33 11.6 7.66 15 8 C15 8.33 15 8.66 15 9 C9.52959003 9.28295224 5.60691673 9.37091468 1 6 C0.125 2.8125 0.125 2.8125 0 0 Z " fill="#A17665" transform="translate(68,56)"/>
<path d="M0 0 C0.7425 0.00064453 1.485 0.00128906 2.25 0.00195312 C6.47675268 0.03555805 10.46332695 0.36177122 14.625 1.1875 C14.625 1.5175 14.625 1.8475 14.625 2.1875 C12.22958732 2.38335135 9.83407226 2.56942107 7.4375 2.75 C6.42719727 2.83411133 6.42719727 2.83411133 5.39648438 2.91992188 C1.58336717 3.19893045 -1.66393342 3.06372405 -5.375 2.1875 C-7.70801986 2.14925377 -10.04211508 2.14175716 -12.375 2.1875 C-8.51108996 -0.39866201 -4.46646838 -0.07290627 0 0 Z " fill="#855A4A" transform="translate(93.375,17.8125)"/>
<path d="M0 0 C1.08667969 0.11085938 2.17335938 0.22171875 3.29296875 0.3359375 C4.12441406 0.43132812 4.95585938 0.52671875 5.8125 0.625 C2.16503472 3.58456613 -0.42344618 4.45485522 -5.1875 4.625 C-7.625 3.1875 -7.625 3.1875 -9.1875 1.625 C-5.54331659 -0.80445561 -4.25826636 -0.4578781 0 0 Z " fill="#C6988F" transform="translate(93.1875,82.375)"/>
<path d="M0 0 C3.63 0 7.26 0 11 0 C11 0.66 11 1.32 11 2 C11.66 2.33 12.32 2.66 13 3 C8.13948404 5.59227518 3.34728867 5.18689553 -2 5 C-2 4.67 -2 4.34 -2 4 C0.31 3.34 2.62 2.68 5 2 C3.35 1.67 1.7 1.34 0 1 C0 0.67 0 0.34 0 0 Z " fill="#B0786B" transform="translate(92,82)"/>
<path d="M0 0 C0.33 0.99 0.66 1.98 1 3 C0.01 4.485 0.01 4.485 -1 6 C-1.66 6 -2.32 6 -3 6 C-3 6.66 -3 7.32 -3 8 C-9.20970773 8.33266291 -13.28264895 7.45029331 -19 5 C-19 4.34 -19 3.68 -19 3 C-17.7625 3.495 -17.7625 3.495 -16.5 4 C-12.1982323 5.22907649 -9.46799051 5.49644339 -5 5 C-1.99666733 2.66663334 -1.99666733 2.66663334 0 0 Z " fill="#422F2C" transform="translate(88,59)"/>
<path d="M0 0 C5.61 0 11.22 0 17 0 C17 0.66 17 1.32 17 2 C17.66 2 18.32 2 19 2 C19 2.66 19 3.32 19 4 C18.01 4 17.02 4 16 4 C16 5.98 16 7.96 16 10 C14.79371992 7.66785852 13.8345262 5.50357861 13 3 C10.43106162 1.71553081 8.23423663 1.67022856 5.375 1.4375 C4.37210937 1.35371094 3.36921875 1.26992188 2.3359375 1.18359375 C1.56507812 1.12300781 0.79421875 1.06242187 0 1 C0 0.67 0 0.34 0 0 Z " fill="#191A25" transform="translate(106,45)"/>
<path d="M0 0 C1.37562854 1.28965176 2.70766393 2.62689293 4 4 C4 4.66 4 5.32 4 6 C5.32 6.66 6.64 7.32 8 8 C8 9.32 8 10.64 8 12 C6.35 11.67 4.7 11.34 3 11 C2.67 9.02 2.34 7.04 2 5 C1.34 5 0.68 5 0 5 C0 3.35 0 1.7 0 0 Z " fill="#AB7966" transform="translate(96,58)"/>
<path d="M0 0 C2.31 0.66 4.62 1.32 7 2 C7 1.34 7 0.68 7 0 C7.99 0.33 8.98 0.66 10 1 C10 1.99 10 2.98 10 4 C8.02 4 6.04 4 4 4 C4 4.66 4 5.32 4 6 C2.35 5.67 0.7 5.34 -1 5 C-1.33 4.01 -1.66 3.02 -2 2 C-1.34 2 -0.68 2 0 2 C0 1.34 0 0.68 0 0 Z " fill="#8B6457" transform="translate(75,55)"/>
<path d="M0 0 C0.66 0.33 1.32 0.66 2 1 C-0.5 3 -0.5 3 -3 5 C-3.825 5.680625 -4.65 6.36125 -5.5 7.0625 C-7.91328723 8.9327976 -10.37342466 10.45099403 -13 12 C-14.34631825 12.98244845 -15.68441297 13.97676564 -17 15 C-17.66 14.67 -18.32 14.34 -19 14 C-12.87987207 8.96590729 -6.68364774 4.26203624 0 0 Z " fill="#1F1F25" transform="translate(183,174)"/>
<path d="M0 0 C2.64 0.33 5.28 0.66 8 1 C8 1.66 8 2.32 8 3 C8.66 3.66 9.32 4.32 10 5 C10.39764263 6.98821313 10.73775349 8.98944339 11 11 C7.47046282 9.82348761 7.21263506 9.11622456 5.4375 6 C3.78625452 2.91497173 3.78625452 2.91497173 1 1 C1 2.65 1 4.3 1 6 C0.67 6 0.34 6 0 6 C0 4.02 0 2.04 0 0 Z " fill="#A97764" transform="translate(78,82)"/>
<path d="M0 0 C0.05402274 2.10388569 0.09280256 4.20816714 0.125 6.3125 C0.14820312 7.48425781 0.17140625 8.65601562 0.1953125 9.86328125 C0 13 0 13 -2 16 C-1.67 12.04 -1.34 8.08 -1 4 C-2.98 4 -4.96 4 -7 4 C-7.33 3.34 -7.66 2.68 -8 2 C-4.91190305 0.23537317 -3.76687864 0 0 0 Z " fill="#96746A" transform="translate(125,69)"/>
<path d="M0 0 C1.39702148 0.00966797 1.39702148 0.00966797 2.82226562 0.01953125 C3.78197266 0.03628906 4.74167969 0.05304687 5.73046875 0.0703125 C6.70951172 0.07933594 7.68855469 0.08835938 8.69726562 0.09765625 C11.10441936 0.12114068 13.51106618 0.1539841 15.91796875 0.1953125 C15.91796875 0.5253125 15.91796875 0.8553125 15.91796875 1.1953125 C14.67660156 1.24429688 13.43523437 1.29328125 12.15625 1.34375 C10.51430181 1.41881049 8.87237578 1.49435689 7.23046875 1.5703125 C6.41384766 1.60125 5.59722656 1.6321875 4.75585938 1.6640625 C0.36153986 1.87755171 -3.03057514 2.34832516 -7.08203125 4.1953125 C-10.39453125 4.3203125 -10.39453125 4.3203125 -13.08203125 4.1953125 C-8.70816745 1.2794033 -5.26848996 -0.06464405 0 0 Z " fill="#533F3D" transform="translate(106.08203125,43.8046875)"/>
<path d="M0 0 C0.33 0.66 0.66 1.32 1 2 C1.66 2 2.32 2 3 2 C3.061875 2.78375 3.12375 3.5675 3.1875 4.375 C3.455625 5.24125 3.72375 6.1075 4 7 C6.47636012 8.37466625 6.47636012 8.37466625 9 9 C7 11 7 11 4.8359375 11.1953125 C3.61777344 11.16050781 3.61777344 11.16050781 2.375 11.125 C1.55773437 11.10695313 0.74046875 11.08890625 -0.1015625 11.0703125 C-0.72804688 11.04710937 -1.35453125 11.02390625 -2 11 C-1.49855469 10.59136719 -0.99710937 10.18273438 -0.48046875 9.76171875 C1.20527824 8.12243264 1.20527824 8.12243264 1.07421875 5.95703125 C0.88279297 4.89548828 0.88279297 4.89548828 0.6875 3.8125 C0.460625 2.554375 0.23375 1.29625 0 0 Z " fill="#C2896F" transform="translate(98,33)"/>
<path d="M0 0 C0.433125 0.598125 0.86625 1.19625 1.3125 1.8125 C2.90681105 3.98975883 2.90681105 3.98975883 4.6875 5.625 C6 7 6 7 6 9 C12.435 8.505 12.435 8.505 19 8 C15.06113482 9.96943259 13.21559293 10.34737908 8.9375 10.4375 C7.89464844 10.47746094 6.85179688 10.51742187 5.77734375 10.55859375 C3 10 3 10 1.140625 7.6484375 C-0.06430667 4.85068519 -0.25801545 3.01018024 0 0 Z " fill="#AB7B69" transform="translate(79,88)"/>
<path d="M0 0 C-0.47050781 0.32613281 -0.94101563 0.65226562 -1.42578125 0.98828125 C-2.35970703 1.64376953 -2.35970703 1.64376953 -3.3125 2.3125 C-3.92738281 2.74175781 -4.54226562 3.17101562 -5.17578125 3.61328125 C-6.94645331 4.95929534 -8.46738009 6.39192803 -10 8 C-10 5.69 -10 3.38 -10 1 C-6.16112237 -0.48320272 -3.93795909 -1.22419163 0 0 Z " fill="#453D42" transform="translate(112,100)"/>
<path d="M0 0 C0 0.66 0 1.32 0 2 C-1.32 2 -2.64 2 -4 2 C-3.67 2.66 -3.34 3.32 -3 4 C-2.01 4.33 -1.02 4.66 0 5 C-0.33 5.99 -0.66 6.98 -1 8 C-1.66 8 -2.32 8 -3 8 C-3 7.34 -3 6.68 -3 6 C-3.99 6 -4.98 6 -6 6 C-6 5.01 -6 4.02 -6 3 C-6.66 3 -7.32 3 -8 3 C-8 2.34 -8 1.68 -8 1 C-5.29120665 -0.35439668 -2.99066732 -0.06501451 0 0 Z " fill="#875541" transform="translate(116,74)"/>
<path d="M0 0 C0.33 0.99 0.66 1.98 1 3 C1.66 2.67 2.32 2.34 3 2 C2.71125 2.556875 2.4225 3.11375 2.125 3.6875 C0.93364233 6.02189686 0.93364233 6.02189686 0.0625 8.6875 C-0.288125 9.450625 -0.63875 10.21375 -1 11 C-1.99 11.33 -2.98 11.66 -4 12 C-3.28571429 3.42857143 -3.28571429 3.42857143 0 0 Z " fill="#5F4E49" transform="translate(65,25)"/>
<path d="M0 0 C0.825 0.185625 1.65 0.37125 2.5 0.5625 C6.61926719 1.0774084 9.90823355 0.63492928 14 0 C13.67 0.99 13.34 1.98 13 3 C10.05770079 3.9807664 8.0091216 4.16488128 4.9375 4.1875 C3.62072266 4.20876953 3.62072266 4.20876953 2.27734375 4.23046875 C0 4 0 4 -2 2 C-1.34 2 -0.68 2 0 2 C0 1.34 0 0.68 0 0 Z " fill="#A8A9B4" transform="translate(87,110)"/>
<path d="M0 0 C1.98 0.66 3.96 1.32 6 2 C6 3.32 6 4.64 6 6 C4.35 6.33 2.7 6.66 1 7 C0.34 5.02 -0.32 3.04 -1 1 C-0.67 0.67 -0.34 0.34 0 0 Z " fill="#D39E86" transform="translate(70,65)"/>
<path d="M0 0 C0.33 0 0.66 0 1 0 C1 4.29 1 8.58 1 13 C1.66 13.33 2.32 13.66 3 14 C2.01 14 1.02 14 0 14 C-0.33 13.01 -0.66 12.02 -1 11 C-2.65 10.67 -4.3 10.34 -6 10 C-6 9.34 -6 8.68 -6 8 C-4.68 7.67 -3.36 7.34 -2 7 C-1.34 4.69 -0.68 2.38 0 0 Z " fill="#A8A09F" transform="translate(129,37)"/>
<path d="M0 0 C0.4125 0.639375 0.825 1.27875 1.25 1.9375 C2.82657332 4.10865941 2.82657332 4.10865941 5.0625 4.875 C5.701875 4.91625 6.34125 4.9575 7 5 C7.66 4.34 8.32 3.68 9 3 C9 5.31 9 7.62 9 10 C4.74278702 9.52697634 2.67053918 7.18981069 0 4 C0 2.68 0 1.36 0 0 Z " fill="#6E554D" transform="translate(119,27)"/>
<path d="M0 0 C0.33 0 0.66 0 1 0 C1.08159574 4.16138263 0.98248524 7.9472484 0 12 C-0.99 12 -1.98 12 -3 12 C-3 9.69 -3 7.38 -3 5 C-2.34 5 -1.68 5 -1 5 C-0.67 3.35 -0.34 1.7 0 0 Z " fill="#08090D" transform="translate(156,180)"/>
<path d="M0 0 C0.99 0 1.98 0 3 0 C4.0625 2.375 4.0625 2.375 5 5 C4.67 5.66 4.34 6.32 4 7 C2.35 6.67 0.7 6.34 -1 6 C-1.042721 4.33388095 -1.04063832 2.66617115 -1 1 C-0.67 0.67 -0.34 0.34 0 0 Z " fill="#CCA296" transform="translate(81,70)"/>
<path d="M0 0 C0.66 1.32 1.32 2.64 2 4 C0.02 4.99 0.02 4.99 -2 6 C-2 6.66 -2 7.32 -2 8 C-2.78375 8.309375 -3.5675 8.61875 -4.375 8.9375 C-6.92330128 9.92875038 -6.92330128 9.92875038 -9 11 C-7.8829081 7.98385187 -6.3874224 6.35491331 -3.9375 4.375 C-0.99175287 2.32880603 -0.99175287 2.32880603 0 0 Z " fill="#7A7685" transform="translate(101,115)"/>
<path d="M0 0 C2.31 0.33 4.62 0.66 7 1 C7 1.99 7 2.98 7 4 C8.98 4 10.96 4 13 4 C10.24075815 5.80411967 9.11027897 6.0127245 5.75 5.625 C4.8425 5.41875 3.935 5.2125 3 5 C3 4.34 3 3.68 3 3 C2.01 2.67 1.02 2.34 0 2 C0 1.34 0 0.68 0 0 Z " fill="#A3796C" transform="translate(85,72)"/>
<path d="M0 0 C0.33 0 0.66 0 1 0 C1.24798276 2.95786664 1.47411854 5.91461298 1.6875 8.875 C1.76033203 9.71675781 1.83316406 10.55851563 1.90820312 11.42578125 C1.96298828 12.23144531 2.01777344 13.03710938 2.07421875 13.8671875 C2.13182373 14.61081543 2.18942871 15.35444336 2.2487793 16.12060547 C2.12563354 17.05090576 2.12563354 17.05090576 2 18 C1.01 18.66 0.02 19.32 -1 20 C-0.67 13.4 -0.34 6.8 0 0 Z " fill="#57575B" transform="translate(1,154)"/>
<path d="M0 0 C0.33 0.99 0.66 1.98 1 3 C-1 5 -1 5 -3.3828125 5.1953125 C-4.28773437 5.17210938 -5.19265625 5.14890625 -6.125 5.125 C-7.49011719 5.09792969 -7.49011719 5.09792969 -8.8828125 5.0703125 C-9.58148438 5.04710938 -10.28015625 5.02390625 -11 5 C-11.33 4.34 -11.66 3.68 -12 3 C-11.38511719 2.95101562 -10.77023438 2.90203125 -10.13671875 2.8515625 C-9.32847656 2.77679688 -8.52023438 2.70203125 -7.6875 2.625 C-6.88699219 2.55539063 -6.08648437 2.48578125 -5.26171875 2.4140625 C-2.72775559 2.10435574 -2.72775559 2.10435574 0 0 Z " fill="#A67059" transform="translate(117,59)"/>
<path d="M0 0 C2.46800047 1.15173355 4.04783565 2.04783565 6 4 C6.71927295 6.31765729 7.3909893 8.65095874 8 11 C7.01 11.33 6.02 11.66 5 12 C4.9175 11.05125 4.835 10.1025 4.75 9.125 C4.34925077 5.89538209 4.34925077 5.89538209 1.9375 4.625 C1.298125 4.41875 0.65875 4.2125 0 4 C0 2.68 0 1.36 0 0 Z " fill="#946D5E" transform="translate(113,22)"/>
<path d="M0 0 C0.99 0.33 1.98 0.66 3 1 C3 1.99 3 2.98 3 4 C-3.625 7.125 -3.625 7.125 -7 6 C-5.90716423 4.96704564 -4.80029421 3.94892165 -3.6875 2.9375 C-3.07261719 2.36902344 -2.45773438 1.80054687 -1.82421875 1.21484375 C-0.92123047 0.61349609 -0.92123047 0.61349609 0 0 Z " fill="#9D99A7" transform="translate(79,115)"/>
<path d="M0 0 C0.79921875 0.19464844 1.5984375 0.38929687 2.421875 0.58984375 C3.32679687 0.82380859 3.32679687 0.82380859 4.25 1.0625 C4.25 0.4025 4.25 -0.2575 4.25 -0.9375 C5.24 -0.9375 6.23 -0.9375 7.25 -0.9375 C7.25 -0.2775 7.25 0.3825 7.25 1.0625 C-2.46045153 3.62233581 -2.46045153 3.62233581 -6.75 2.0625 C-7.41 1.4025 -8.07 0.7425 -8.75 0.0625 C-5.47814447 -1.01060858 -3.32052408 -0.83013102 0 0 Z " fill="#47454D" transform="translate(94.75,108.9375)"/>
<path d="M0 0 C4.29 0 8.58 0 13 0 C13.33 0.66 13.66 1.32 14 2 C8.76528314 2.75612577 4.22745859 3.2063366 -1 2 C-0.67 1.34 -0.34 0.68 0 0 Z " fill="#BE8B78" transform="translate(87,77)"/>
<path d="M0 0 C0 3 0 3 -1.53125 4.82421875 C-2.1809375 5.43910156 -2.830625 6.05398437 -3.5 6.6875 C-4.1496875 7.31011719 -4.799375 7.93273437 -5.46875 8.57421875 C-5.9740625 9.04472656 -6.479375 9.51523437 -7 10 C-7.33 9.34 -7.66 8.68 -8 8 C-6.10267152 3.88912162 -3.9945793 2.05127045 0 0 Z " fill="#3B3539" transform="translate(73,19)"/>
<path d="M0 0 C0.78375 0.185625 1.5675 0.37125 2.375 0.5625 C4.97089775 1.25962266 4.97089775 1.25962266 7 0 C7.33 0.66 7.66 1.32 8 2 C10.02463255 2.65213292 10.02463255 2.65213292 12 3 C11 4 11 4 8.49609375 4.09765625 C6.98208984 4.08025391 6.98208984 4.08025391 5.4375 4.0625 C4.42558594 4.05347656 3.41367188 4.04445312 2.37109375 4.03515625 C1.58863281 4.02355469 0.80617187 4.01195312 0 4 C0 2.68 0 1.36 0 0 Z " fill="#526674" transform="translate(136,188)"/>
<path d="M0 0 C2 0 4 0 6 0 C6 1.65 6 3.3 6 5 C4.02 5 2.04 5 0 5 C0 3.35 0 1.7 0 0 Z " fill="#BBB8C2" transform="translate(123,187)"/>
<path d="M0 0 C0.66 0.33 1.32 0.66 2 1 C1.67 1.99 1.34 2.98 1 4 C-0.9375 4.75 -0.9375 4.75 -3 5 C-3.66 4.67 -4.32 4.34 -5 4 C-5 3.34 -5 2.68 -5 2 C-2.625 0.9375 -2.625 0.9375 0 0 Z M-8 4 C-7.01 4.33 -6.02 4.66 -5 5 C-5.66 5.66 -6.32 6.32 -7 7 C-7.33 6.01 -7.66 5.02 -8 4 Z " fill="#C0917F" transform="translate(83,28)"/>
<path d="M0 0 C0.33 0 0.66 0 1 0 C0.67 3.96 0.34 7.92 0 12 C-2 10 -2 10 -2.25 6.5625 C-2 3 -2 3 0 0 Z " fill="#090A0E" transform="translate(159,165)"/>
<path d="M0 0 C0.66 0.33 1.32 0.66 2 1 C1.01 1 0.02 1 -1 1 C-0.67 0.67 -0.34 0.34 0 0 Z M-4 3 C-3.34 3.33 -2.68 3.66 -2 4 C-2 6.31 -2 8.62 -2 11 C-2.66 11 -3.32 11 -4 11 C-4 11.66 -4 12.32 -4 13 C-4.66 13 -5.32 13 -6 13 C-5.34 9.7 -4.68 6.4 -4 3 Z " fill="#987C77" transform="translate(126,49)"/>
<path d="M0 0 C1.32 0 2.64 0 4 0 C4 2 4 2 2.1875 3.9375 C1.465625 4.618125 0.74375 5.29875 0 6 C-0.5775 6.5775 -1.155 7.155 -1.75 7.75 C-2.36875 8.36875 -2.36875 8.36875 -3 9 C-2.44271087 5.65626525 -1.64826111 2.96687001 0 0 Z " fill="#2D1A17" transform="translate(92,51)"/>
<path d="M0 0 C1.32 0.66 2.64 1.32 4 2 C3.01 4.64 2.02 7.28 1 10 C0.67 10 0.34 10 0 10 C-1.125 2.25 -1.125 2.25 0 0 Z " fill="#2A2934" transform="translate(89,47)"/>
<path d="M0 0 C3.5625 0.3125 3.5625 0.3125 6.5625 3.3125 C2.6025 2.9825 -1.3575 2.6525 -5.4375 2.3125 C-3.4375 0.3125 -3.4375 0.3125 0 0 Z " fill="#4A393A" transform="translate(113.4375,45.6875)"/>
<path d="M0 0 C1.65 0.33 3.3 0.66 5 1 C2.94766315 3.2477975 1.99332739 4.0022242 -1 5 C-3.00875442 4.72428861 -5.01178687 4.39764263 -7 4 C-7 3.67 -7 3.34 -7 3 C-3.535 2.505 -3.535 2.505 0 2 C0 1.34 0 0.68 0 0 Z " fill="#453B3D" transform="translate(109,15)"/>
<path d="M0 0 C0.33 0 0.66 0 1 0 C1.5497272 5.63470383 -0.04952165 8.38987758 -3 13 C-3.93045933 10.44855176 -4.08564091 9.25993522 -3.22265625 6.640625 C-2.83980469 5.85171875 -2.45695313 5.0628125 -2.0625 4.25 C-1.68222656 3.45078125 -1.30195312 2.6515625 -0.91015625 1.828125 C-0.60980469 1.22484375 -0.30945313 0.6215625 0 0 Z " fill="#55565A" transform="translate(8,138)"/>
<path d="M0 0 C0.33 0.99 0.66 1.98 1 3 C-3.95 4.485 -3.95 4.485 -9 6 C-8 3 -8 3 -6.15234375 2.05078125 C-5.42144531 1.80714844 -4.69054687 1.56351562 -3.9375 1.3125 C-3.20402344 1.06113281 -2.47054687 0.80976562 -1.71484375 0.55078125 C-0.86599609 0.27814453 -0.86599609 0.27814453 0 0 Z " fill="#15171D" transform="translate(139,113)"/>
<path d="M0 0 C4.455 0.99 4.455 0.99 9 2 C8.01 3.485 8.01 3.485 7 5 C2.25 4.125 2.25 4.125 0 3 C0 2.01 0 1.02 0 0 Z " fill="#A06549" transform="translate(67,71)"/>
<path d="M0 0 C0.66 0 1.32 0 2 0 C2.33 2.97 2.66 5.94 3 9 C2.01 9.33 1.02 9.66 0 10 C0 6.7 0 3.4 0 0 Z " fill="#805344" transform="translate(127,58)"/>
<path d="M0 0 C0.99 0 1.98 0 3 0 C2.4140625 6.15234375 2.4140625 6.15234375 2 8 C1.01 8.495 1.01 8.495 0 9 C0 6.03 0 3.06 0 0 Z " fill="#583024" transform="translate(130,53)"/>
<path d="M0 0 C2 2 2 2 2.125 5.125 C2.08375 6.07375 2.0425 7.0225 2 8 C1.67 7.34 1.34 6.68 1 6 C0.175 5.835 -0.65 5.67 -1.5 5.5 C-2.325 5.335 -3.15 5.17 -4 5 C-4.33 4.34 -4.66 3.68 -5 3 C-3.68 3 -2.36 3 -1 3 C-0.67 2.01 -0.34 1.02 0 0 Z " fill="#4D403F" transform="translate(125,26)"/>
<path d="M0 0 C0.33 0.66 0.66 1.32 1 2 C0.22265625 3.9453125 0.22265625 3.9453125 -0.9375 6.125 C-1.31777344 6.84945312 -1.69804688 7.57390625 -2.08984375 8.3203125 C-2.39019531 8.87460938 -2.69054687 9.42890625 -3 10 C-3.99 10 -4.98 10 -6 10 C-4.02 6.7 -2.04 3.4 0 0 Z " fill="#19191F" transform="translate(111,166)"/>
<path d="M0 0 C0.33 0 0.66 0 1 0 C1.33 1.98 1.66 3.96 2 6 C2.99 5.67 3.98 5.34 5 5 C5 6.32 5 7.64 5 9 C3.35 9 1.7 9 0 9 C0 6.03 0 3.06 0 0 Z " fill="#504F56" transform="translate(82,119)"/>
<path d="M0 0 C1.32 0 2.64 0 4 0 C3.6875 1.875 3.6875 1.875 3 4 C2.01 4.66 1.02 5.32 0 6 C-0.38218767 4.34385343 -0.71395102 2.67542976 -1 1 C-0.67 0.67 -0.34 0.34 0 0 Z " fill="#4F3B36" transform="translate(113,93)"/>
<path d="M0 0 C1.98 0.495 1.98 0.495 4 1 C3.67 1.66 3.34 2.32 3 3 C2.7724985 4.87056791 2.59037189 6.74685958 2.4375 8.625 C2.35371094 9.62789062 2.26992187 10.63078125 2.18359375 11.6640625 C2.12300781 12.43492188 2.06242187 13.20578125 2 14 C1.67 14 1.34 14 1 14 C0.83165067 12.22932584 0.66538091 10.45845388 0.5 8.6875 C0.4071875 7.70136719 0.314375 6.71523437 0.21875 5.69921875 C0 3 0 3 0 0 Z " fill="#75767C" transform="translate(68,92)"/>
<path d="M0 0 C1.98 0.66 3.96 1.32 6 2 C5.67 2.99 5.34 3.98 5 5 C5.99 5.33 6.98 5.66 8 6 C6.68 6.33 5.36 6.66 4 7 C0 1.125 0 1.125 0 0 Z " fill="#88543E" transform="translate(67,74)"/>
<path d="M0 0 C1.65 0 3.3 0 5 0 C5 1.32 5 2.64 5 4 C2.03 3.505 2.03 3.505 -1 3 C-0.67 2.01 -0.34 1.02 0 0 Z " fill="#AA7864" transform="translate(102,73)"/>
<path d="M0 0 C1.98 0.495 1.98 0.495 4 1 C4 1.66 4 2.32 4 3 C5.98 3 7.96 3 10 3 C10 3.33 10 3.66 10 4 C6.37 4 2.74 4 -1 4 C-0.67 2.68 -0.34 1.36 0 0 Z " fill="#A87864" transform="translate(106,40)"/>
<path d="M0 0 C0.33 0.66 0.66 1.32 1 2 C2.32 1.67 3.64 1.34 5 1 C4 3 4 3 1 5 C1 5.33 1 5.66 1 6 C-0.65 6 -2.3 6 -4 6 C-2.68 4.02 -1.36 2.04 0 0 Z " fill="#C49A8A" transform="translate(76,38)"/>
<path d="M0 0 C0.66 1.32 1.32 2.64 2 4 C0 6 0 6 -3.625 6.125 C-4.73875 6.08375 -5.8525 6.0425 -7 6 C-7 5.67 -7 5.34 -7 5 C-5.35 5 -3.7 5 -2 5 C-2 3.68 -2 2.36 -2 1 C-1.34 0.67 -0.68 0.34 0 0 Z " fill="#D2A695" transform="translate(90,38)"/>
<path d="M0 0 C0.66 0.33 1.32 0.66 2 1 C0.33333333 2.66666667 -1.33333333 4.33333333 -3 6 C-5.125 5.625 -5.125 5.625 -7 5 C-4.63707344 2.47411298 -3.33537489 1.11179163 0 0 Z " fill="#3D3B41" transform="translate(83,12)"/>
<path d="M0 0 C3.63 0 7.26 0 11 0 C11 0.66 11 1.32 11 2 C11.66 2.33 12.32 2.66 13 3 C11.68 3.33 10.36 3.66 9 4 C9 3.01 9 2.02 9 1 C6.03 1 3.06 1 0 1 C0 0.67 0 0.34 0 0 Z " fill="#A16D64" transform="translate(92,82)"/>
<path d="M0 0 C2.97 0 5.94 0 9 0 C6.01353231 1.99097846 3.40312738 2.94124926 0 4 C0 2.68 0 1.36 0 0 Z " fill="#825545" transform="translate(102,59)"/>
<path d="M0 0 C1.65 0 3.3 0 5 0 C4.01 0.495 4.01 0.495 3 1 C3 2.32 3 3.64 3 5 C1.68 5 0.36 5 -1 5 C-0.67 3.35 -0.34 1.7 0 0 Z " fill="#4F2E22" transform="translate(72,52)"/>
<path d="M0 0 C0.66 1.32 1.32 2.64 2 4 C1 7 1 7 -3 9 C-2.01 6.03 -1.02 3.06 0 0 Z " fill="#535158" transform="translate(79,136)"/>
<path d="M0 0 C0.66 0.66 1.32 1.32 2 2 C1.625 4.625 1.625 4.625 1 7 C0.01 7.33 -0.98 7.66 -2 8 C-1.125 1.125 -1.125 1.125 0 0 Z " fill="#996C5C" transform="translate(107,88)"/>
<path d="M0 0 C1.0625 1.875 1.0625 1.875 2 4 C1.67 4.66 1.34 5.32 1 6 C-1.5625 6.625 -1.5625 6.625 -4 7 C-4 6.34 -4 5.68 -4 5 C-3.34 5 -2.68 5 -2 5 C-1.34 3.35 -0.68 1.7 0 0 Z " fill="#BE8972" transform="translate(89,60)"/>
<path d="M0 0 C1.37562854 1.28965176 2.70766393 2.62689293 4 4 C4 4.66 4 5.32 4 6 C4.99 6.33 5.98 6.66 7 7 C6.01 7.33 5.02 7.66 4 8 C3.67 7.01 3.34 6.02 3 5 C2.01 5 1.02 5 0 5 C0 3.35 0 1.7 0 0 Z " fill="#9E654D" transform="translate(96,58)"/>
<path d="M0 0 C0.99 0.33 1.98 0.66 3 1 C3 1.99 3 2.98 3 4 C0.36 4.33 -2.28 4.66 -5 5 C-5.33 4.34 -5.66 3.68 -6 3 C-5.195625 2.87625 -4.39125 2.7525 -3.5625 2.625 C-2.716875 2.41875 -1.87125 2.2125 -1 2 C-0.67 1.34 -0.34 0.68 0 0 Z " fill="#724A3E" transform="translate(82,55)"/>
<path d="M0 0 C0.33 0.66 0.66 1.32 1 2 C0.06421005 4.35981813 -0.93347808 6.69631264 -2 9 C-2.33 9 -2.66 9 -3 9 C-3.1875 5.625 -3.1875 5.625 -3 2 C-2.01 1.34 -1.02 0.68 0 0 Z " fill="#18191F" transform="translate(162,171)"/>
<path d="M0 0 C-0.33 0.99 -0.66 1.98 -1 3 C-3.31 3 -5.62 3 -8 3 C-8 2.34 -8 1.68 -8 1 C-5.23735711 0.40267181 -2.83967231 0 0 0 Z " fill="#694335" transform="translate(99,89)"/>
<path d="M0 0 C0 2.97 0 5.94 0 9 C-0.33 7.68 -0.66 6.36 -1 5 C-1.99 4.67 -2.98 4.34 -4 4 C-4 3.34 -4 2.68 -4 2 C-1 0 -1 0 0 0 Z " fill="#D3A492" transform="translate(94,58)"/>
<path d="M0 0 C1.98 0.99 3.96 1.98 6 3 C6 3.66 6 4.32 6 5 C3.03 4.505 3.03 4.505 0 4 C0 2.68 0 1.36 0 0 Z " fill="#A09EAF" transform="translate(102,116)"/>
<path d="M0 0 C1.32 0.33 2.64 0.66 4 1 C4 1.66 4 2.32 4 3 C6.31 3 8.62 3 11 3 C11 3.33 11 3.66 11 4 C8.03 4 5.06 4 2 4 C1.34 2.68 0.68 1.36 0 0 Z " fill="#996957" transform="translate(87,89)"/>
<path d="M0 0 C1.65 0 3.3 0 5 0 C5.33 0.99 5.66 1.98 6 3 C4.02 3 2.04 3 0 3 C0 2.01 0 1.02 0 0 Z " fill="#C69079" transform="translate(107,67)"/>
<path d="M0 0 C0.495 0.309375 0.99 0.61875 1.5 0.9375 C4.97986781 2.41644382 8.24028509 2.62402851 12 3 C12 3.33 12 3.66 12 4 C8.7 4 5.4 4 2 4 C1.34 2.68 0.68 1.36 0 0 Z " fill="#261B1E" transform="translate(101,62)"/>
<path d="M0 0 C0.33 0.99 0.66 1.98 1 3 C-0.32 3.99 -1.64 4.98 -3 6 C-3.33 4.68 -3.66 3.36 -4 2 C-2.68 1.34 -1.36 0.68 0 0 Z " fill="#5A3F39" transform="translate(103,55)"/>
<path d="M0 0 C1.32 0.33 2.64 0.66 4 1 C3 3 3 3 -0.0625 4.125 C-1.031875 4.41375 -2.00125 4.7025 -3 5 C-3 4.01 -3 3.02 -3 2 C-2.01 2 -1.02 2 0 2 C0 1.34 0 0.68 0 0 Z " fill="#716363" transform="translate(125,47)"/>
</svg>
